<svg xmlns="http://www.w3.org/2000/svg" viewBox="0 0 500 500"><g id="freepik--Floor--inject-306"><ellipse id="freepik--floor--inject-306" cx="250" cy="363.25" rx="223.23" ry="128.88" style="fill:#fafafa"></ellipse></g><g id="freepik--Character--inject-306"><g id="freepik--Chartacter--inject-306"><g id="freepik--Bottom--inject-306"><polygon points="221.2 384.57 227.37 382.48 225.5 378.29 221.64 381.66 221.2 384.57"></polygon><path d="M215.25,373.38s-.37,4-.46,5.21,5.11,5.3,6.41,6l.44-2.91c1.11,1.18,1.74,2.65,2.91,4.83,1,1.81,2.16,5.22,4.91,7.61,4.08,3.55,10.55,5.48,17.19,5.94s10.51-1.06,12.45-2.45,2.59-3,2.17-4.75S215.25,373.38,215.25,373.38Z" style="fill:#263238"></path><path d="M233.48,360.41l.15-2.3c1.23,0,1.27,3.34,3,6.32a59.26,59.26,0,0,0,9,12.27C252.14,383.07,258,387.12,261,390c3.91,3.83-3.36,9.5-14.2,8.54-5.38-.47-14.87-3.48-17.46-6.76s-4.08-8.28-6.16-10.67-6.64-4.86-7.89-7.71c-.69-1.57-.18-5.16.35-8.2.5-2.8.72-7.1,2.29-6.7l.07,1.45c.6,1.25,2,3.32,6.36,4.19C226.48,364.56,233,365,233.48,360.41Z" style="fill:#455a64"></path><path d="M227.81,364.35c2.08-.12,4.33-.73,5.26-2.57,0,0,0,0,0-.06a5.27,5.27,0,0,0,1.26,4.47c1.87,2.33,13.63,18.74,13.63,18.74s-11-13.58-13.11-16.14c-3.12-3.78-4.13-4.24-7.09-4.44Z" style="opacity:0.15"></path><path d="M261,390c-2.47-2.42-7.07-5.69-12.38-10.48,1.1,1.88,2.73,3.36,2.88,4,.38,1.51-4.15,3.47-6.89,4.1s-5.7-3.36-9.6-7-7.56.36-9.08,5.25a32.65,32.65,0,0,0,3.41,5.95c2.59,3.28,12.08,6.29,17.46,6.76C257.6,399.48,264.87,393.81,261,390Z" style="fill:#37474f"></path><path d="M230.39,368.68a.67.67,0,0,1-.76.56.66.66,0,0,1,.19-1.31A.67.67,0,0,1,230.39,368.68Z" style="opacity:0.15"></path><path d="M233.48,372.32a.67.67,0,1,1-.57-.75A.66.66,0,0,1,233.48,372.32Z" style="opacity:0.15"></path><path d="M236.57,376a.67.67,0,0,1-1.32-.19.67.67,0,0,1,.76-.56A.66.66,0,0,1,236.57,376Z" style="opacity:0.15"></path><path d="M239.66,379.61a.66.66,0,1,1-.56-.75A.66.66,0,0,1,239.66,379.61Z" style="opacity:0.15"></path><path d="M242.76,383.26a.67.67,0,0,1-.76.56.66.66,0,0,1-.56-.75.66.66,0,0,1,.75-.56A.67.67,0,0,1,242.76,383.26Z" style="opacity:0.15"></path><path d="M229.7,368.85a.3.3,0,0,1-.17-.08.27.27,0,0,1,0-.38c.13-.13,3.43-3.11,7.6-2.73h0a.26.26,0,0,1,.24.29.27.27,0,0,1-.29.24c-3.94-.35-7.16,2.56-7.19,2.59A.25.25,0,0,1,229.7,368.85Z" style="fill:#263238"></path><path d="M232.79,372.48a.21.21,0,0,1-.16-.08.26.26,0,0,1,0-.38c.14-.13,3.43-3.11,7.6-2.73h0a.27.27,0,1,1-.06.53c-3.93-.35-7.16,2.57-7.19,2.6A.26.26,0,0,1,232.79,372.48Z" style="fill:#263238"></path><path d="M235.88,376.14a.25.25,0,0,1-.16-.08.27.27,0,0,1,0-.38c.14-.13,3.43-3.11,7.6-2.73h0a.27.27,0,0,1,.24.29.28.28,0,0,1-.29.24c-3.94-.36-7.16,2.56-7.2,2.59A.24.24,0,0,1,235.88,376.14Z" style="fill:#263238"></path><path d="M239,379.79a.26.26,0,0,1-.17-.09.27.27,0,0,1,0-.38c.14-.12,3.43-3.11,7.61-2.73h0a.27.27,0,0,1,.24.29.26.26,0,0,1-.29.24c-3.93-.35-7.16,2.57-7.19,2.6A.33.33,0,0,1,239,379.79Z" style="fill:#263238"></path><path d="M242.07,383.43a.32.32,0,0,1-.17-.09.26.26,0,0,1,0-.37c.14-.13,3.43-3.11,7.6-2.74h0a.26.26,0,0,1,.24.29.27.27,0,0,1-.29.24c-3.93-.36-7.16,2.56-7.19,2.59A.28.28,0,0,1,242.07,383.43Z" style="fill:#263238"></path><path d="M180.49,406.88c-.34,5.52-1.21,9.17-3.18,12.4s-5.67,4.23-9.41,3.27-8.51-3.51-9.57-8.28-.82-8,0-13.13Z" style="fill:#263238"></path><path d="M164.26,366.52c-1.54.12-1.23,7.1-2.14,14.51-.47,3.79-.56,7.29-1.35,9.81a48.55,48.55,0,0,0-2.2,8.71c-1,7.44-.62,10.77,2,15.29s11.82,9,16.39,2.53c3.74-5.25,3.91-11.08,3.6-18.51-.32-7.69,1-12.94,1.34-18.77.32-5.58,2.17-11.33-.13-11.43-.11.82-.21,1.86-.32,2.66-.09.62-.26,3.64-1.12,3.66a11.33,11.33,0,0,1,0-2.1,2.45,2.45,0,0,0-.41-1.8,2.93,2.93,0,0,0-1.71-.77c-1.52-.31-5.13-.92-6.67-1.06-.77-.08-3-.46-3.8-.46a6.45,6.45,0,0,0-2,.27,1.36,1.36,0,0,0-.83.76,2.21,2.21,0,0,0-.09.85,6.12,6.12,0,0,1-.2,1.53c-.05.21-.21.48-.43.43s-.25-.27-.25-.45c0-.9.12-1.55.16-2.6,0-.48.1-1.14.11-1.63S164.23,367,164.26,366.52Z" style="fill:#455a64"></path><path d="M164.22,401.41a.54.54,0,0,0,1.07.11.54.54,0,0,0-.48-.59A.54.54,0,0,0,164.22,401.41Z" style="opacity:0.15"></path><path d="M164.75,396.27a.55.55,0,0,0,.48.6.54.54,0,0,0,.11-1.08A.54.54,0,0,0,164.75,396.27Z" style="opacity:0.15"></path><path d="M165.26,391.43a.54.54,0,0,0,.48.59.54.54,0,0,0,.59-.48.53.53,0,0,0-.48-.59A.53.53,0,0,0,165.26,391.43Z" style="opacity:0.15"></path><path d="M165.76,386.65a.54.54,0,0,0,.48.59.54.54,0,0,0,.59-.48.53.53,0,0,0-.48-.59A.53.53,0,0,0,165.76,386.65Z" style="opacity:0.15"></path><path d="M175.86,387.33a.55.55,0,0,0,.49.6.54.54,0,0,0,.11-1.08A.55.55,0,0,0,175.86,387.33Z" style="opacity:0.15"></path><path d="M175.36,392.15a.54.54,0,0,0,.48.59.54.54,0,0,0,.59-.48.53.53,0,0,0-.48-.59A.54.54,0,0,0,175.36,392.15Z" style="opacity:0.15"></path><path d="M174.86,397a.54.54,0,0,0,.48.59.54.54,0,0,0,.59-.48.54.54,0,0,0-.48-.59A.53.53,0,0,0,174.86,397Z" style="opacity:0.15"></path><path d="M174.32,402.14a.54.54,0,0,0,.48.59.54.54,0,0,0,.11-1.07A.54.54,0,0,0,174.32,402.14Z" style="opacity:0.15"></path><path d="M158.57,399.55a42.63,42.63,0,0,1,1.86-7.63,3.15,3.15,0,0,1,.61.79,7.56,7.56,0,0,1,.67,2.29c.19,1,.39,2.09.55,3,.42,2.26,1,4.7,2.79,6.3a6.56,6.56,0,0,0,4.36,1.27,17,17,0,0,0,4-.13c1.72-.43,2.14-2,2.65-3.47.65-1.87,1.32-3.74,2-5.58a5.51,5.51,0,0,1,1.47-2.46,3.36,3.36,0,0,1,1-.37c-.07,1.78-.11,3.43,0,5.34.31,7.43.14,13.26-3.6,18.51-4.57,6.43-13.79,2-16.39-2.53S157.57,407,158.57,399.55Z" style="fill:#37474f"></path><polygon points="169.78 404.54 174.05 368.69 172.06 368.64 169.78 404.54" style="opacity:0.15"></polygon><path d="M164.73,401.74h.08c3.56-.78,7.55-.51,9.93.66a.27.27,0,0,0,.36-.12.27.27,0,0,0-.12-.37c-2.52-1.24-6.56-1.52-10.29-.71a.27.27,0,0,0-.2.33A.26.26,0,0,0,164.73,401.74Z" style="fill:#263238"></path><path d="M165.26,396.6a.22.22,0,0,0,.14,0c2.73-1.28,7.16-.65,9.88.68a.26.26,0,0,0,.36-.12.28.28,0,0,0-.12-.37c-2.83-1.39-7.48-2-10.35-.69a.28.28,0,0,0-.13.37A.27.27,0,0,0,165.26,396.6Z" style="fill:#263238"></path><path d="M165.77,391.75a.22.22,0,0,0,.14,0c2.72-1.27,7.16-.65,9.87.69a.27.27,0,0,0,.37-.13.27.27,0,0,0-.13-.36c-2.83-1.4-7.47-2-10.34-.7a.27.27,0,0,0-.13.37A.25.25,0,0,0,165.77,391.75Z" style="fill:#263238"></path><path d="M166.27,387a.23.23,0,0,0,.14,0c2.72-1.28,7.16-.65,9.87.69a.28.28,0,0,0,.37-.13.27.27,0,0,0-.13-.36c-2.83-1.4-7.47-2-10.34-.7a.27.27,0,0,0-.13.37A.27.27,0,0,0,166.27,387Z" style="fill:#263238"></path><path d="M166.22,382.37a.54.54,0,0,0,.48.6.54.54,0,0,0,.11-1.08A.54.54,0,0,0,166.22,382.37Z" style="opacity:0.15"></path><path d="M176.32,383.06a.54.54,0,0,0,.48.59.54.54,0,1,0,.11-1.07A.54.54,0,0,0,176.32,383.06Z" style="opacity:0.15"></path><path d="M166.73,382.7a.24.24,0,0,0,.14,0c2.72-1.28,7.15-.65,9.87.68a.27.27,0,0,0,.36-.12.27.27,0,0,0-.12-.37c-2.83-1.39-7.47-2-10.34-.69a.28.28,0,0,0-.14.36A.27.27,0,0,0,166.73,382.7Z" style="fill:#263238"></path><path d="M176.54,181.48c-1.67,4.85-3.79,22.84-4.7,30.38-3.71,31-6.26,85.73-6.26,85.73A147.05,147.05,0,0,0,162,324.64c-.35,17-.82,53.32-.82,53.32a24.43,24.43,0,0,0,21.94,2.21s10.87-56.66,14.2-73.29c3.44-17.19,8.16-37.53,8.16-37.53l6.08,32.75a150.29,150.29,0,0,0-.8,16.31c0,9.93,4.37,45.94,4.37,45.94s13.62,6.36,22.84.95c0,0,1.8-57,2.49-68.89,1.35-23.39-.43-79.9-.41-105.08Z" style="fill:#263238"></path><path d="M205.51,269.35l6.15-30.75s11.37-2.41,17.42-9.36c0,0,1.06,6.09-13.6,13.19L208,270l3.63,32.08Z"></path></g><g id="freepik--Top--inject-306"><g id="freepik--Chest--inject-306"><path d="M223.88,116.53a43.61,43.61,0,0,1,2.78,11.9c.81,7.47.21,27.8.21,27.8l-26.7-44.36.92-2.55Z" style="fill:#e0e0e0"></path><g id="freepik--Head--inject-306"><path d="M198.24,66.41c-6.05,6.91-4,15-1.8,23.09,2.6,9.24,2.26,13.79,7.59,16.08-1.35-29,8.62,4.94,31.79-17.76,4.19-4.1,4.39-16.73-.74-22.44C227.82,57.32,210.08,53.36,198.24,66.41Z" style="fill:#37474f"></path><path d="M196.32,99.15c4.26,1.74,6.16-1.18,6.16-1.18l-.8,10.48s3.89,7.87,9.48,10.9c4.19,2.27,8.73,3.51,11.1,6.35a48.42,48.42,0,0,0,1.33-7l.7-7.7a44.05,44.05,0,0,0,5.14-.39c4-.59,6.59-3.76,7.84-8.11,2-7,1.64-17.53-.93-31.16-4.48-3.54-19.28-4.22-28.81,1.69.38,8-1.27,9.16-1.48,14.55a7.39,7.39,0,0,1-2.17,2.16c-.84.72-1.79.09-2.28-1-.82-1.91-1.52-3.14-3.41-3.61s-4-.14-5.73,2.42C189.79,91.43,193.24,97.89,196.32,99.15Z" style="fill:#ffbda7"></path><path d="M217.75,79.16l-3.95,2.4a2.41,2.41,0,0,1,.81-3.26A2.24,2.24,0,0,1,217.75,79.16Z" style="fill:#37474f"></path><path d="M235.56,80l-4.46-1.34a2.23,2.23,0,0,1,2.82-1.6A2.44,2.44,0,0,1,235.56,80Z" style="fill:#37474f"></path><path d="M216,85a1.9,1.9,0,1,0,1.86-2A1.9,1.9,0,0,0,216,85Z" style="fill:#263238"></path><path d="M230.64,84.26a1.9,1.9,0,1,0,1.86-2A1.9,1.9,0,0,0,230.64,84.26Z" style="fill:#263238"></path><path d="M223.38,78.6l1.38,13,6.14-1.5C229.93,86.15,226.15,80.28,223.38,78.6Z" style="fill:#f0997a"></path><path d="M206.15,86.06c-.75,7.45,3.32,9.38,6.31,10.2,4.77,1.31,7.15-2.73,12.76-3.14,3.21-.23,5.53.75,8.48,2.51a9.79,9.79,0,0,0,2.24,1c1.13.21,2.4-.27,2.46-1.42a68.57,68.57,0,0,0-.1-9.85l-.12-1.9s1.15,10.5.87,14.58-1.35,8.11-3.59,10c-3.07,2.66-9.71,4.19-17.88,2.74s-11.35-4-12.37-6.85c-2.29-6.41-2.9-13.84-3.61-15.3A10.87,10.87,0,0,1,206.15,86.06Z" style="fill:#455a64"></path><path d="M227.17,95.57c3.8.32,5.7,1.78,5.76,4.24s-.69,5.52-2.92,6.45-2-1.47-1.68-2.77-.44-1-1.68-1-1.75-.13-1.33,1.16,1,3.13-1.54,2.92-4.42-2.66-4.88-5.78S221.42,95.07,227.17,95.57Z" style="fill:#ffbda7"></path><path d="M224.42,101.9a3.85,3.85,0,0,1-1.12-.17,1.43,1.43,0,0,1-.27-.09,2.34,2.34,0,0,1-.65-.33,2.68,2.68,0,0,1-.51-.5s-.08-.11-.12-.09,0,.23,0,.27a1.12,1.12,0,0,0,.1.31,1.15,1.15,0,0,0,.38.49,2.31,2.31,0,0,0,.72.39,3,3,0,0,0,1.54,0c.22,0,.42-.15.33-.27l-.05,0a.67.67,0,0,0-.2,0Z" style="fill:#f0997a"></path><path d="M224.75,101a3.87,3.87,0,0,0,2.81-.75c.82-.56,1.14-1.65.85-1.84a6,6,0,0,0-3.51-.84,6.14,6.14,0,0,0-3.45.55c-.37.27.28,1.51.84,2A3.34,3.34,0,0,0,224.75,101Z" style="fill:#b16668"></path><path d="M226.38,100.84a4.41,4.41,0,0,0-4.91-2,3.45,3.45,0,0,0,.82,1.23,3.34,3.34,0,0,0,2.46.87A4.53,4.53,0,0,0,226.38,100.84Z" style="fill:#f28f8f"></path></g><g id="freepik--Arm--inject-306"><path d="M309.82,106c2.28-2.67-.7-9.37-3.19-12.34s-6.07-6.33-9.1-3.87.23,9.58,2.9,12.36S307.26,108.81,309.82,106Z" style="fill:#263238"></path><path d="M341.55,59.76c-1,.38-5.14,2.31-6.57,3s-5.28,3.6-6.24,4.15-1.54.14-1.18-.52A61.64,61.64,0,0,1,332,62s5.56-3.47,6.77-5.21.14-3.67-1.15-3.15a83.21,83.21,0,0,0-7.92,4c-1.23.84-6,5.63-6,5.63s2-4,3.21-6.45,3.38-6,1.66-6.71-3.12,1.32-6.52,6c-1.73,2.37-3.55,5-5.28,7.45-.47-2.64-2.39-4.38-3.51-4s-1.07,2-1.49,4a15.09,15.09,0,0,1-2.22,5.77c-1.33,2.1-1.25,4.77-1.61,7.22s-1.37,3.31-2.89,5.13-5.21,6.06-9.58,10.58a14.76,14.76,0,0,0,9.25,14.7s8.57-10,10.92-13c3.58-4.57,4.15-5.32,6.91-7.43,3.75-2.86,3.88-5,5.31-6.84s2.81-4,2.81-4,4.12-2.84,6.33-4.49,3.42-2.66,3.25-3.87-1.56-1.54-1.56-1.54a30.94,30.94,0,0,0,3.85-3.31C343.81,61.11,342.54,59.39,341.55,59.76Z" style="fill:#ffbda7"></path><path d="M322.49,62.5a9.42,9.42,0,0,1,3.36,1.93,17.55,17.55,0,0,1,2.62,2.89,16.7,16.7,0,0,1,1.85,3.43,7.31,7.31,0,0,1,.54,3.83,9.32,9.32,0,0,0-1-3.65A19.46,19.46,0,0,0,328,67.66a19.75,19.75,0,0,0-2.44-2.89A12.43,12.43,0,0,0,322.49,62.5Z" style="fill:#f0997a"></path><path d="M338.68,65.84c-.66.52-1.34,1-2,1.46s-1.4.89-2.11,1.32-1.44.83-2.18,1.2-1.49.76-2.27,1.07c.65-.53,1.34-1,2-1.46s1.4-.9,2.11-1.32,1.44-.83,2.19-1.21S337.9,66.15,338.68,65.84Z" style="fill:#f0997a"></path><path d="M309.54,69.34a12.86,12.86,0,0,0,1.75-4.41c.18-.78.35-1.56.45-2.34a9.25,9.25,0,0,1,.47-2.41,1.58,1.58,0,0,1,1-.89,1.85,1.85,0,0,1,1.34.28,5,5,0,0,1,1.7,1.84,6.82,6.82,0,0,1,.8,2.35,15.58,15.58,0,0,1,.09,2.45c-.05,1.61-.21,3.19-.11,4.76s.56,3.09.71,4.73a11.14,11.14,0,0,1-2.87,9,11.54,11.54,0,0,0,2.42-8.9c-.2-1.55-.72-3.11-.8-4.74s0-3.24.05-4.82a16.49,16.49,0,0,0-.05-2.34,6.39,6.39,0,0,0-.72-2.17A4.39,4.39,0,0,0,314.31,60a1.37,1.37,0,0,0-.95-.23,1.11,1.11,0,0,0-.74.6,9.21,9.21,0,0,0-.51,2.27c-.13.8-.33,1.57-.53,2.35A13,13,0,0,1,309.54,69.34Z" style="fill:#f0997a"></path><path d="M295.12,92.24l5.82-6s-.86,2.57,2.76,7c5.45,6.63,8.63,4.94,8.63,4.94l-7.44,9.36c-1.78.24-5,1.11-8.81-4C293.37,99.93,291.2,96.57,295.12,92.24Z" style="fill:#e0e0e0"></path><path d="M242.51,157c3-8.25,7.53-10.44,19.39-15.6,9.77-4.25,14.83-5.42,19.38-8.48s28.54-27,28.54-27c-2.12.74-5.84,0-10.12-6.11-2.65-3.8-3.25-8.83-2.17-10.1,0,0-21,17.73-24.94,20.5-4.47,2-17.76,7.79-25.15,8.86a52.14,52.14,0,0,1-8.88.78Z" style="fill:#455a64"></path><path d="M243.94,144.54c-1-2.61-1.38-10.6-3.22-15.88l-1.34,2.22L242.51,157c2.54-6.91,6.25-9.87,14.21-13.35h0S245,147.14,243.94,144.54Z" style="fill:#263238"></path></g><g id="freepik--chest--inject-306"><path d="M220.69,129.42a136.71,136.71,0,0,0,.05,14.23c.24,2,6.56,14.69,6.56,14.69s.35-11.63.27-15.28S224,129.3,224,129.3s.41-1.17-1.15-1.16A2.34,2.34,0,0,0,220.69,129.42Z" style="fill:#263238"></path><path d="M222.5,122.47a25.55,25.55,0,0,0,1.28-5.94l.1-.87c.92,3.73,1.65,7.45,2.19,11.13Z" style="fill:#f0f0f0"></path><path d="M219.55,123.07a4.6,4.6,0,0,1,3.38-.52s1.54.81,1.63,1.92a32.27,32.27,0,0,1-.61,4.83c0-1.26-2.29-.93-3.26.12l-3.51-4.69A2.29,2.29,0,0,1,219.55,123.07Z" style="fill:#263238"></path><path d="M200,109.54a11.28,11.28,0,0,1,2-4.76l-.13,1.69c.13,1,.93,2.43,3.06,5a22.8,22.8,0,0,0,4,3.51c3,2.17,11.52,7.3,12,7.61-1,.37-2.82,2.2-3.93,3.45s-3.81,5-3.81,5S199.23,114.5,200,109.54Z" style="fill:#f0f0f0"></path><path d="M182,119.72c7.52-2.7,13.68-5.9,15.87-6.77,0,0,11.9,16.18,15.81,21.83s13.61,23.56,13.61,23.56c1-12.54.44-31.08-2.21-41.42a50.68,50.68,0,0,0,13.47,3c2.64,2.85,4.93,22.51,4.3,33.12s.42,37-1.45,62.93c-5,7-42.49,17.61-72.66,4.18.74-9,1-17.54,3-27.46s5.06-21.18,4.78-30.12-2.21-21.39-1.83-26.4C175.37,126.78,174.37,123.34,182,119.72Z" style="fill:#455a64"></path><path d="M168.75,220.14h0c24.51,10.91,53.83,6,66.67,0-15.87,5.38-32.58-1.56-37.81-6.13s-16-33.52-16-33.52l5.81-32.5-8.52,6.25-2.49,5.49c0,1,.07,1.94.1,2.85a49.62,49.62,0,0,1-.35,7.08c-.43,3.7-1.17,7.6-2,11.51-.14.65-.27,1.3-.41,1.95-.56,2.6-1.13,5.19-1.65,7.71-.13.63-.26,1.25-.38,1.87s-.24,1.25-.36,1.9c-.59,3.11-1.16,6.47-1.68,9.87-.14.92-.28,1.83-.41,2.75-.18,1.21-.35,2.42-.51,3.62-.22,1.58-.42,3.13-.6,4.66C167.76,218.77,169,217.4,168.75,220.14Z" style="fill:#37474f"></path><path d="M200.38,107.92c0,1.33,2.28,5.64,4.34,8.28s3.68,4.1,6.5,8.75,11.52,20,13.77,25.55,4.84,14.74,4.84,14.74-5-10.21-9.49-16.18-11.11-12.64-12.12-14.42l.75-3.72L202.09,129a76.62,76.62,0,0,1-6.67-15A42.81,42.81,0,0,0,200.38,107.92Z" style="fill:#37474f"></path><path d="M224.18,112.1c1.26,2.15,1.89,2.9,2.91,5,1.16,2.36,5.32,9.74,4.93,11.09-.09.34-3.89,2-3.89,2s2.77,3.86,2.81,5.08-2.46,17.13-3.64,23.1c0,0-.37-20.49-1.14-27.84a119,119,0,0,0-2.38-14Z" style="fill:#37474f"></path></g><path d="M233.42,133.48c-2.78.64-3.17,3.25-3,5.72s1.69,4.82,4.14,4.12,2.77-3.82,2.57-5.64C236.8,135,235.47,133,233.42,133.48Z" style="fill:#080808"></path><path d="M233.42,133.48c-2.78.64-3.17,3.25-3,5.72s1.69,4.82,4.14,4.12,2.77-3.82,2.57-5.64C236.8,135,235.47,133,233.42,133.48Z" style="fill:#fff;opacity:0.2"></path><path d="M232.3,141.61c-1.75-2.07-1.36-6.3,0-7.65-1.73,1-2,3.17-1.87,5.24.16,2.48,1.69,4.82,4.14,4.12a3.41,3.41,0,0,0,2.34-2.5C236.4,142,233.94,143.55,232.3,141.61Z" style="opacity:0.1"></path></g><g id="freepik--Podium--inject-306"><g id="freepik--podium--inject-306"><polygon points="252.08 449.25 252.08 435.46 320.95 395.7 320.95 409.49 252.08 449.25" style="fill:#080808"></polygon><polygon points="252.08 449.25 252.08 435.46 320.95 395.7 320.95 409.49 252.08 449.25" style="fill:#fff;opacity:0.7000000000000001"></polygon><polygon points="252.08 435.46 192.11 400.84 192.11 414.63 252.08 449.25 252.08 435.46" style="fill:#080808"></polygon><polygon points="252.08 435.46 192.11 400.84 192.11 414.63 252.08 449.25 252.08 435.46" style="fill:#fff;opacity:0.5"></polygon><polygon points="252.08 435.46 192.11 400.84 265.92 363.93 320.95 395.7 252.08 435.46" style="fill:#080808"></polygon><polygon points="252.08 435.46 192.11 400.84 265.92 363.93 320.95 395.7 252.08 435.46" style="fill:#fff;opacity:0.85"></polygon><polygon points="252.08 429.78 311.11 395.7 317.77 217.93 252.08 255.86 252.08 429.78" style="fill:#080808"></polygon><polygon points="252.08 429.78 311.11 395.7 317.77 217.93 252.08 255.86 252.08 429.78" style="fill:#fff;opacity:0.7000000000000001"></polygon><polygon points="252.08 429.78 201.95 400.84 195.29 223.07 252.08 255.86 252.08 429.78" style="fill:#080808"></polygon><polygon points="252.08 429.78 201.95 400.84 195.29 223.07 252.08 255.86 252.08 429.78" style="fill:#fff;opacity:0.5"></polygon><polygon points="316.99 238.74 317.77 217.93 252.08 255.86 195.29 223.07 196.07 243.88 252.08 276.22 316.99 238.74" style="fill:#080808;opacity:0.4"></polygon><polygon points="264.02 273.34 305.82 249.2 301.88 387.18 264.02 409.09 264.02 273.34" style="fill:#fff;opacity:0.55"></polygon><path d="M299.77,259.49l-3.71,124.26L269.9,398.9V276.73l29.87-17.24m1.64-2.65-33,19V401.46l29-16.83,3.94-127.79Z" style="fill:#080808;opacity:0.30000000000000004"></path><polygon points="247.47 269.71 247.46 250.65 339.72 197.39 339.72 216.45 247.47 269.71" style="fill:#080808"></polygon><polygon points="247.47 269.71 247.46 250.65 339.72 197.39 339.72 216.45 247.47 269.71" style="fill:#fff;opacity:0.7000000000000001"></polygon><polygon points="247.47 250.65 182.89 222.32 182.89 232.43 247.47 269.71 247.47 250.65" style="fill:#080808"></polygon><polygon points="247.47 250.65 182.89 222.32 182.89 232.43 247.47 269.71 247.47 250.65" style="fill:#fff;opacity:0.5"></polygon><polygon points="247.46 250.65 182.89 222.32 275.14 169.06 339.72 197.39 247.46 250.65" style="fill:#080808"></polygon><polygon points="247.46 250.65 182.89 222.32 275.14 169.06 339.72 197.39 247.46 250.65" style="fill:#fff;opacity:0.85"></polygon></g><g id="freepik--Flag--inject-306"><path d="M256.6,245.44c-3,3-2.45,7.27,0,11.32s-.4,8.58,1.12,13.45,4.08,4,7.3,7.71,2.39,6.46,5.81,9.32,8.91.08,11.57.48,2.89,2.8,9.19.74c4.42-1.44,7.22-7.85,10.25-9.57s7.59-2.3,11-5.82,3.21-10.15,5.12-13.41,5-1.48,8.25-7.17c2.82-4.92.32-8.93,1.86-14.28s4.87-6.21,6.17-11c2-7.44-.4-8.61.67-13.89.79-3.89,3.89-11.92,0-13.09Z" style="fill:#080808"></path><path d="M278.25,288.19a15.11,15.11,0,0,1,4.15-.47,9.51,9.51,0,0,1,2.68,1.07l9.05-65h0Zm15.88-64.42-31.77,51.81a13.08,13.08,0,0,1,2.66,2.34,14.8,14.8,0,0,1,2.71,4.66l26.4-58.81Zm0,0L297.86,283c1.39-1.73,2.66-3.37,4-4.11a29.84,29.84,0,0,1,4.18-1.78l-11.89-53.34Zm0,0-38.23,31.7c.21.43.45.86.71,1.29,1.95,3.24.54,6.77.66,10.54l36.86-43.53Zm41.47-13.17-41.45,13.16h0l40.78-4.52h0a15.92,15.92,0,0,1,0-5.94C335.08,212.54,335.32,211.61,335.59,210.6Zm-41.46,13.17,33.4,18.46h0a15,15,0,0,1,.55-4,14.16,14.16,0,0,1,2.8-5.23l-36.75-9.21Zm0,0,22,42a23.49,23.49,0,0,1,1.86-6.06c1.13-1.93,2.67-2.1,4.42-3.09l-28.26-32.8Z" style="opacity:0.15"></path><path d="M321,208.27c-.14.58-.25,1.12-.34,1.6l-.1.52a29.15,29.15,0,0,0-.25,10.16,4.59,4.59,0,0,1-.05,2.23c-.1.13-.23.28-.37.47A29.45,29.45,0,0,0,314,234.14a32.27,32.27,0,0,0-1.06,10.75,19.55,19.55,0,0,0-7.62,7.37,31.61,31.61,0,0,0-3.27,9.22c-.08.35-.23,1-.38,1.59-.46.19-1,.4-1.47.57a38,38,0,0,0-5.6,2.49,28.6,28.6,0,0,0-8,7.48h0a19.34,19.34,0,0,0-2-.41,19,19,0,0,0-2.76-.2,21.2,21.2,0,0,0-2.32.13,28.25,28.25,0,0,0-7.38-8.61,26,26,0,0,0-2.8-15.09c-2.15-4-1.51-4.19-.76-6.84.45-1.6,1.17-3.53,1.71-5l-8.05,4.65c-.58,2.35-.61,5.81,1.71,10.14a20.37,20.37,0,0,1,2,12.29,10.92,10.92,0,0,0-.08,3l.32.21a22.57,22.57,0,0,1,5.27,4.43,23.32,23.32,0,0,1,4.18,7l.23.56c.48-.07,1-.17,1.53-.26a24.24,24.24,0,0,1,4.4-.52,12.42,12.42,0,0,1,1.86.14,13.56,13.56,0,0,1,4.21,1.37c.21-.05.49-.12.84-.23a22.78,22.78,0,0,0,2.64-3,22.52,22.52,0,0,1,6.25-6,32,32,0,0,1,4.72-2.09,12.73,12.73,0,0,0,4.34-2.2,18.49,18.49,0,0,0,1.32-4.31,26.22,26.22,0,0,1,2.59-7.51,14,14,0,0,1,6.88-5.87c.26-.12.62-.29.7-.34a3.43,3.43,0,0,0,.63-.9c.31-.53.35-1,.25-3.26a27,27,0,0,1,.82-9.14,23.77,23.77,0,0,1,4.78-8.76A5.67,5.67,0,0,0,326,225a10.56,10.56,0,0,0,.36-5.17,23.27,23.27,0,0,1,.18-8.18,18.62,18.62,0,0,1,.75-3.08,28,28,0,0,0,1.37-4.69ZM280.82,260.8c.58.6,1.16,1.21,1.71,1.85.38.42.73.87,1.09,1.31a30.21,30.21,0,0,1,6.73-5.26,35.43,35.43,0,0,1,4-2,34.69,34.69,0,0,1,3.53-8.78,27.75,27.75,0,0,1,6.43-7.56,37.59,37.59,0,0,1,1.41-8.61,36.72,36.72,0,0,1,5.84-11.83,36.18,36.18,0,0,1-.13-6.18l-6.15,3.55c0,.3,0,.61,0,.92a42.54,42.54,0,0,0-5.45,11.85,43.48,43.48,0,0,0-1.44,7.37,34.16,34.16,0,0,0-5.81,7.4,39,39,0,0,0-3.33,7.48c-.68.33-1.34.68-2,1l-1.05.62a38.71,38.71,0,0,0-3-9.35c.16-.47.33-.93.49-1.38a36.79,36.79,0,0,0,1.56-5.06,42.05,42.05,0,0,0,.84-9.86l-6.15,3.55a36.79,36.79,0,0,1-.68,5.08,29.06,29.06,0,0,1-1.31,4.17c-.45,1.26-1,2.7-1.27,3.78l-.07.22c0,.07.09.16.13.25A33.28,33.28,0,0,1,280.82,260.8Z" style="fill:#fafafa"></path><path d="M286.21,230.34l-6.65,5.5c-.06.38-.11.75-.19,1.14a29.06,29.06,0,0,1-1.31,4.17c-.31.87-.65,1.83-.93,2.69l8.94-10.56C286.15,232.3,286.19,231.32,286.21,230.34Zm-2.9,14.31c.16-.47.33-.93.49-1.38a36.79,36.79,0,0,0,1.56-5.06,1.77,1.77,0,0,0,0-.2l-6.83,11.14a32.14,32.14,0,0,1,1.62,5.66L284,246.3C283.79,245.75,283.56,245.19,283.31,244.65Zm-11.12,14.9-5.35,8.73a22.12,22.12,0,0,1,4.63,4l.57.69,2.73-6.1a27.39,27.39,0,0,0-2.66-2.35A32.49,32.49,0,0,0,272.19,259.55Zm-2.88-10.11c-1.06-2-1.44-3-1.46-3.88l-5.07,4.19a20.14,20.14,0,0,0,1.14,2.59,17.92,17.92,0,0,1,1.8,5l4.68-5.52A24.35,24.35,0,0,0,269.31,249.44Zm17.27,24.18a19.34,19.34,0,0,0-2-.41A18,18,0,0,0,282,273l-1.53,6.17c.44,0,.89-.07,1.35-.07a12.42,12.42,0,0,1,1.86.14,12.61,12.61,0,0,1,2.64.69l1-7.26-.74.92Zm33.75-52.76,6.07-.67c0-.13,0-.26,0-.4a24.4,24.4,0,0,1-.12-6.22l-6.26,2a33.07,33.07,0,0,0,.32,5C320.3,220.66,320.32,220.77,320.33,220.86Zm-8.73-.92c-.05-.51-.1-1.08-.13-1.68l-7.62,2.42c-.4.7-.76,1.42-1.12,2.13l7.46-.82C310.68,221.23,311.16,220.55,311.6,219.94Zm-24.28,33.44-.58.34-2.33,9.47a30.35,30.35,0,0,1,4.76-3.75l1.47-10.61c-.48,1.12-.93,2.28-1.33,3.5C288.63,252.66,288,253,287.32,253.38Zm11.79-20.1,4.21,8c.34-.31.67-.63,1-.93a42.51,42.51,0,0,1,.44-4.24l-5-5.78C299.54,231.32,299.31,232.29,299.11,233.28Zm1.65-5.85,5.42,3c.4-1.19.82-2.3,1.27-3.32l-6-1.5C301.22,226.21,301,226.81,300.76,227.43ZM314,234.14c-.05.18-.08.35-.13.53l5.56,3.07c.12-.62.26-1.25.45-1.91a22.17,22.17,0,0,1,2.17-5.07l-6.12-1.53A28.56,28.56,0,0,0,314,234.14Zm-6.5,15.11,3.15,6a13.58,13.58,0,0,1,6-5.41l-4.1-4.74A19.5,19.5,0,0,0,307.48,249.25Zm-8.38-3.15-1.69-7.58c-.76.81-1.5,1.64-2.19,2.53l.69,11a30,30,0,0,1,2-4.13C298.29,247.3,298.69,246.7,299.1,246.1ZM302,261.48c-.08.35-.23,1-.38,1.59-.46.19-1,.4-1.47.57-1,.38-2.21.84-3.45,1.41l.42,6.68c.15-.09.3-.2.46-.28a32,32,0,0,1,4.72-2.09c.64-.24,1.24-.47,1.8-.71l-1.84-8.26C302.2,260.76,302.11,261.13,302,261.48Z" style="fill:#e0e0e0"></path></g><g id="freepik--Microphone--inject-306"><path d="M298.18,171.52a5.91,5.91,0,1,0-6.78,9.67l5.35,3.75a5.91,5.91,0,0,0,6.78-9.68Z" style="fill:#455a64"></path><path d="M305,183.49a5.89,5.89,0,0,0,.12-6.59c-4,1.32-2.87,5.36-5.13,5.79s-3.17-.57-6.26-2.86-4.81-3.25-4.36-5.77a5.91,5.91,0,0,0,2,7.13l5.35,3.75A5.91,5.91,0,0,0,305,183.49Z" style="fill:#37474f"></path><path d="M318,205.32c.18.52-1.48,1.08-1.66.56-2.12-6.26-6.41-18.91-12.64-22.74-.51-.32.42-1.81.93-1.5C311.4,185.81,315.91,199.1,318,205.32Z" style="fill:#263238"></path></g><g id="freepik--microphone--inject-306"><path d="M279.73,182.17a5.91,5.91,0,0,0-6.78,9.68l5.35,3.74a5.91,5.91,0,1,0,6.78-9.67Z" style="fill:#455a64"></path><path d="M286.53,194.15a5.91,5.91,0,0,0,.12-6.6c-4,1.32-2.87,5.37-5.13,5.79s-3.17-.57-6.26-2.86-4.81-3.25-4.36-5.77a5.92,5.92,0,0,0,2.05,7.14l5.35,3.74A5.9,5.9,0,0,0,286.53,194.15Z" style="fill:#37474f"></path><path d="M299.56,216c.18.52-1.48,1.09-1.66.56-2.12-6.26-6.41-18.9-12.64-22.74-.51-.31.42-1.81.93-1.49C293,196.46,297.46,209.75,299.56,216Z" style="fill:#263238"></path></g><g id="freepik--microphone--inject-306"><path d="M261.28,192.82a5.91,5.91,0,0,0-6.78,9.68l5.35,3.75a5.91,5.91,0,1,0,6.78-9.68Z" style="fill:#455a64"></path><path d="M268.08,204.8a5.91,5.91,0,0,0,.12-6.6c-4,1.33-2.87,5.37-5.13,5.79s-3.17-.56-6.26-2.85-4.81-3.25-4.36-5.77a5.91,5.91,0,0,0,2.05,7.13l5.35,3.75A5.91,5.91,0,0,0,268.08,204.8Z" style="fill:#37474f"></path><path d="M281.11,226.62c.18.53-1.48,1.09-1.66.56-2.12-6.25-6.41-18.9-12.64-22.74-.51-.31.42-1.81.92-1.49C274.5,207.11,279,220.4,281.11,226.62Z" style="fill:#263238"></path></g><g id="freepik--microphone--inject-306"><path d="M242.83,203.47a5.91,5.91,0,1,0-6.78,9.68l5.35,3.75a5.91,5.91,0,1,0,6.78-9.68Z" style="fill:#455a64"></path><path d="M249.63,215.45a5.91,5.91,0,0,0,.12-6.6c-4,1.33-2.87,5.37-5.13,5.8s-3.17-.57-6.26-2.86-4.82-3.25-4.36-5.77a5.91,5.91,0,0,0,2.05,7.13l5.35,3.75A5.91,5.91,0,0,0,249.63,215.45Z" style="fill:#37474f"></path><path d="M262.66,237.27c.18.53-1.48,1.09-1.66.57-2.12-6.26-6.41-18.91-12.64-22.74-.51-.32.41-1.81.92-1.5C256.05,217.77,260.55,231.06,262.66,237.27Z" style="fill:#263238"></path></g></g><g id="freepik--arm--inject-306"><path d="M192.48,217.4c2,4.07,3.37,5.59,5,6.71s5.64,2.33,8.43,3.91c3.2,1.82,3.46,2.27,6.45,3.53s4.15,2,2.89,3.13c-1.67,1.42-5.07,1-7.74.46-4.34-.86-5.79-1.61-6.11-1s1.35,3.58,2.46,5.86a23.34,23.34,0,0,0,4.65,6.46c1.32,1.32,7.45,5.08,7.45,5.08s-1.23,2-5.34.73c-1.68-.51-5-2.05-5.64-2.1-2.19-.17-4,.74-6.45-.39a38.06,38.06,0,0,0-5.41-2.26c-4.06-1.34-4.21-3.15-6.73-7.74a75.51,75.51,0,0,0-7.15-11.34C180.33,219.42,192.48,217.4,192.48,217.4Z" style="fill:#ffbda7"></path><path d="M190.81,213l3.8,7.17S183.83,221.89,180,231l-9.57-12.74S180.3,207.77,190.81,213Z" style="fill:#e0e0e0"></path><path d="M182.15,119.67c-14.61,4.11-17,5-21.81,19.89-3.25,10.19-8,33.43-9.6,39.18s-2.62,8.38,1.63,15.7,20.63,31,20.63,31,4.36-10.54,17.81-12.45l-14.68-28.3,9.51-29.39S193.75,132.53,182.15,119.67Z" style="fill:#455a64"></path><path d="M185.31,156.34c.4-1.55.77-3.11,1.07-4.68s.59-3.13.8-4.71a60.39,60.39,0,0,0,.57-9.49,36.89,36.89,0,0,0-1.32-9.35,24.68,24.68,0,0,0-4.28-8.44,21.1,21.1,0,0,1,3,3.79,26.28,26.28,0,0,1,2,4.41,31.78,31.78,0,0,1,1.59,9.57,47,47,0,0,1-.82,9.63A49.29,49.29,0,0,1,185.31,156.34Z" style="fill:#37474f"></path></g></g></g></g><g id="freepik--Balloons--inject-306"><g id="freepik--balloons--inject-306"><path d="M81.89,255.54a77,77,0,0,1-.7,11.85c-.6,4.29-1.68,8.48-2.56,12.71a57.44,57.44,0,0,0-.13,22.55c1.41,7.49,3.88,14.72,6.34,21.91,1.25,3.66,2.51,7.32,3.65,11s2.86,7.38,3,11.22h.82c-.39-4.83-2.41-9.84-3.8-14.18-2.4-7.53-5.21-14.93-7.3-22.56s-3.42-15.75-2.51-23.74c.47-4.26,1.58-8.4,2.47-12.58A80,80,0,0,0,82.79,262a77.31,77.31,0,0,0-2.22-23.72c-1.95-7.63-5.15-14.81-8.61-21.86-7-14.36-15.61-29.46-14.56-46,.52-8.15,3.44-15.93,3.77-24.11a52.81,52.81,0,0,0-3.74-21.92,48.32,48.32,0,0,0-2.33-4.87c-.19-.35-.46.07-.33.32a55.64,55.64,0,0,1,5.52,22.62,56.19,56.19,0,0,1-1.09,12c-.78,4-1.8,7.95-2.37,12C54.6,182,61.21,196.77,68,210.4c3.42,6.91,7,13.8,9.53,21.09A76.19,76.19,0,0,1,81.89,255.54Z" style="fill:#e0e0e0"></path><path d="M88.55,224.58c.78,7.08,1,14.21,1.26,21.32a135.6,135.6,0,0,1-.44,21.33c-.86,7-3.1,13.78-4.28,20.75a71.37,71.37,0,0,0-.31,19.8c.83,7.42,3.27,14.7,5,22a75,75,0,0,1,2.12,17.06h.55c.26-13.88-3.54-21-6.05-33.81a70.75,70.75,0,0,1-.95-19.92c.62-6.93,2.74-13.56,4.09-20.36a97.63,97.63,0,0,0,1.43-20.77c-.13-7-.36-14-.85-20.92a148.78,148.78,0,0,0-2.94-20.48C85.7,203.75,84,197,82.92,190.16a73.33,73.33,0,0,1-.78-20.86,46.9,46.9,0,0,1,6.58-18.87c.11-.18,0-.65-.25-.39C81,159.27,80,172.4,81.14,183.8,82.53,197.58,87,210.82,88.55,224.58Z" style="fill:#e0e0e0"></path><path d="M113.21,137c.08-.32-.33-.77-.46-.31a190.85,190.85,0,0,0-5.08,22,96.31,96.31,0,0,0-.88,21.59c1,14.8,4.57,29.57,3,44.47-2.62,25.48-20.54,47.67-18.62,73.87.61,8.29,2.65,16.53,3.07,24.84a94.44,94.44,0,0,1-2.12,23.35h.55A87.7,87.7,0,0,0,95.16,328c.19-7.39-1.3-14.56-2.41-21.83a65.06,65.06,0,0,1-.07-21A107.1,107.1,0,0,1,98,266.47c4.36-12,9.77-23.66,12-36.26,2.58-14.36-.17-28.78-1.71-43.09a108.24,108.24,0,0,1-.15-25.12C109.19,153.56,111.25,145.27,113.21,137Z" style="fill:#e0e0e0"></path><g id="freepik--balloons--inject-306"><path d="M55.05,120.5a4.25,4.25,0,0,1-2.67,4.92,3,3,0,0,1-2.87-.51c-.27-.29-.45-.69-.14-1a1.23,1.23,0,0,1,.94-.25,2.3,2.3,0,0,1,1.66.65,3.44,3.44,0,0,1-.33,5,2.81,2.81,0,0,1-2.69.3,2,2,0,0,1-1-.79c-.27-.48-.32-1.35.5-1.23a2.28,2.28,0,0,1,1.7,2.42,2.65,2.65,0,0,1-2.93,2.26c-.41,0-.19.62.1.68a3.07,3.07,0,0,0,3.52-2,3.33,3.33,0,0,0-1.29-3.62,2.17,2.17,0,0,0-1.87-.48,1.26,1.26,0,0,0-.79,1.32c.07,1.4,1.61,2.3,2.86,2.43,3.24.35,5-3.35,3.42-6a3.6,3.6,0,0,0-4-1.66,1.22,1.22,0,0,0-.79,1.46A2.39,2.39,0,0,0,49.89,126a4.25,4.25,0,0,0,4.46-.7,4.59,4.59,0,0,0,1.12-4.93c-.1-.29-.48-.23-.42.09Z" style="fill:#e0e0e0"></path><path d="M51.87,120.82h0c-.38-1.79,2.28-7.5,3-7.65s5.08,3.94,5.48,5.85h0a2.16,2.16,0,0,1-.86,2,6.73,6.73,0,0,1-6,1.27,2.14,2.14,0,0,1-1.62-1.47Z" style="fill:#080808"></path><path d="M51.87,120.82h0c-.38-1.79,2.28-7.5,3-7.65s5.08,3.94,5.48,5.85h0a2.16,2.16,0,0,1-.86,2,6.73,6.73,0,0,1-6,1.27,2.14,2.14,0,0,1-1.62-1.47Z" style="opacity:0.4"></path><path d="M23.16,86.26c2.92,13.72,17.37,28.75,32.15,29,13.31-7,20.45-25.9,17.52-39.61S58.34,51,42.34,54.44,20.24,72.54,23.16,86.26Z" style="fill:#080808"></path><path d="M23.16,86.26c2.92,13.72,17.37,28.75,32.15,29,13.31-7,20.45-25.9,17.52-39.61S58.34,51,42.34,54.44,20.24,72.54,23.16,86.26Z" style="opacity:0.2"></path><path d="M73.29,83.07s-.89,14-17,18.47C40.85,105.9,24.41,91.39,22.45,79.88a32.22,32.22,0,0,0,.71,6.38c2.92,13.72,17.37,28.75,32.15,29,11-5.79,17.81-19.77,18.15-32.19Z" style="opacity:0.1"></path><path d="M113.13,138.42a4.49,4.49,0,0,0,4.59,6.17c1.21-.16,3.21-1.33,2.11-2.78a2.31,2.31,0,0,0-2-.61,3.28,3.28,0,0,0-2.11,1c-2.14,2.19-.93,6.26,2.15,6.71a3.26,3.26,0,0,0,3.44-1.56,1.49,1.49,0,0,0-1.89-2.06,3.17,3.17,0,0,0-2,3.76,3.27,3.27,0,0,0,3.64,2.27c.38-.07,0-.7-.25-.68a2.52,2.52,0,0,1-2.53-1.51,2.47,2.47,0,0,1,.64-2.58c.33-.32,1-.76,1.43-.56.26.11.27.09.24.38a1,1,0,0,1-.07.33,1.63,1.63,0,0,1-.44.69,2.72,2.72,0,0,1-2.53.63c-2.09-.52-2.5-3.28-1.4-4.87A2.62,2.62,0,0,1,118.9,142c.8.23.17,1-.24,1.33a3,3,0,0,1-1.68.49c-2.66,0-3.89-2.74-3.42-5.06,0-.2-.3-.64-.43-.33Z" style="fill:#e0e0e0"></path><path d="M107.22,137h0c.5-1.76,5.54-5.55,6.23-5.35s2.63,5.86,2.1,7.74h0a2.17,2.17,0,0,1-1.71,1.36,6.75,6.75,0,0,1-5.89-1.69,2.15,2.15,0,0,1-.73-2.06Z" style="fill:#080808"></path><path d="M107.22,137h0c.5-1.76,5.54-5.55,6.23-5.35s2.63,5.86,2.1,7.74h0a2.17,2.17,0,0,1-1.71,1.36,6.75,6.75,0,0,1-5.89-1.69,2.15,2.15,0,0,1-.73-2.06Z" style="fill:#fff;opacity:0.30000000000000004"></path><path d="M98.11,93c-3.86,13.48,1.83,33.53,14.74,40.72,15,.1,30.22-13.25,34.08-26.73S145.72,78.47,130,74,102,79.55,98.11,93Z" style="fill:#080808"></path><path d="M98.11,93c-3.86,13.48,1.83,33.53,14.74,40.72,15,.1,30.22-13.25,34.08-26.73S145.72,78.47,130,74,102,79.55,98.11,93Z" style="fill:#fff;opacity:0.5"></path><path d="M143.86,113.77s-7.34,11.9-23.65,8.34c-15.71-3.42-23.4-24-19.72-35a32,32,0,0,0-2.38,6c-3.86,13.48,1.83,33.53,14.74,40.72,12.46.08,25-9.07,31.15-19.88Z" style="opacity:0.05"></path><path d="M89.05,150.36a4.47,4.47,0,0,0,3.22,6.95c1.15.1,3.21-.46,2.72-2s-2.95-1.44-4-.81c-2.69,1.54-2.55,5.84.33,7a3.45,3.45,0,0,0,3.67-.51,1.48,1.48,0,0,0-1-2.62,3.15,3.15,0,0,0-3,3.26,3.28,3.28,0,0,0,3.09,3c.41,0,.2-.63-.1-.69a2.4,2.4,0,0,1-.89-4.47c.31-.19,1.48-.66,1.62,0,.08.43-.5,1-.81,1.15a2.69,2.69,0,0,1-2.61,0c-1.76-1-1.64-3.54-.42-4.88a2.89,2.89,0,0,1,1.31-.86,2.49,2.49,0,0,1,1.93.21c.65.53-.43,1.19-.86,1.32a3.06,3.06,0,0,1-1.59,0c-2.54-.62-3.09-3.53-2.17-5.66.1-.23-.21-.68-.4-.39Z" style="fill:#e0e0e0"></path><path d="M82.23,150.34h0c.12-1.83,4.23-6.61,5-6.56s3.82,5.16,3.7,7.11h0a2.15,2.15,0,0,1-1.37,1.69,6.72,6.72,0,0,1-6.12-.39,2.17,2.17,0,0,1-1.16-1.85Z" style="fill:#080808"></path><path d="M82.23,150.34h0c.12-1.83,4.23-6.61,5-6.56s3.82,5.16,3.7,7.11h0a2.15,2.15,0,0,1-1.37,1.69,6.72,6.72,0,0,1-6.12-.39,2.17,2.17,0,0,1-1.16-1.85Z" style="opacity:0.30000000000000004"></path><path d="M63.93,109.31c-.9,14,9,32.37,23.11,36.63,14.7-3.12,26.68-19.41,27.57-33.4S107.32,84.89,91,83.85,64.82,95.31,63.93,109.31Z" style="fill:#080808"></path><path d="M113.05,119.78S108.43,133,91.74,133c-16.08,0-28-18.39-26.77-30a31.91,31.91,0,0,0-1,6.34c-.9,14,9,32.37,23.11,36.63,12.19-2.59,22.49-14.22,26.17-26.09Z" style="opacity:0.1"></path></g><path d="M104.32,351.75a1.72,1.72,0,0,0-1.95.1c-.71.47-1.32,1.43-2.21,1.54s-1.19-.75-1.76-1.12a2,2,0,0,0-2,0c-1.07.4-1.92-.27-2.55-1.1a5.19,5.19,0,0,1-1-2.47,5.69,5.69,0,0,1,0-1c.16.08.31.17.47.24l.48.18a9.45,9.45,0,0,0,1.15.34,5.93,5.93,0,0,0,2.1.09,5.66,5.66,0,0,0,1.9-.74,2.51,2.51,0,0,0,1.33-1.31,2.53,2.53,0,0,0-1.55-2.89,5,5,0,0,0-3.86.28,5.19,5.19,0,0,0-2.63,2.29s0,0,0,0a.45.45,0,0,0-.14.06,8.05,8.05,0,0,0-2.86-2.42,5.46,5.46,0,0,0-3.55-.74c-1.41.3-1.6,1.84-.9,2.92A5.11,5.11,0,0,0,88,348a6.89,6.89,0,0,0,2.6,0c0,.3,0,.62-.1.91a5.58,5.58,0,0,1-.46,1.54A5.92,5.92,0,0,1,87.88,353c-1.08.68-2.39.64-3-.59A2,2,0,0,0,83,351.07a2.37,2.37,0,0,0-1.89,1.44c-.19.37-.4,1.19-.9,1.23-.7.05-.71-1.09-.91-1.51a1.32,1.32,0,0,0-2.44,1c0,.07.08,0,.07-.06-.3-1.66,1.66-1.67,2.09-.6a8.9,8.9,0,0,0,.38,1.34,1,1,0,0,0,1.59.22c.72-.69.91-1.94,2.12-2,.73,0,.89.5,1.14,1.05a2.66,2.66,0,0,0,.87,1c1.75,1.23,3.92.15,5.13-1.31a6.88,6.88,0,0,0,1.55-3.61,5.89,5.89,0,0,0,.49,1.31c.65,1.28,2.13,3.08,3.73,3,.91-.06,1.59-.95,2.41-.17.53.51,1,1.09,1.79,1.13a3,3,0,0,0,2.11-1.14,3.32,3.32,0,0,1,1.29-1,.87.87,0,0,1,1.14.63c0,.09.1,0,.12,0A1.08,1.08,0,0,0,104.32,351.75ZM93.9,345.82a6.64,6.64,0,0,1,1.84-.93,5.78,5.78,0,0,1,2-.31,1.57,1.57,0,0,1,1.3.53.85.85,0,0,1-.31,1.19,5.8,5.8,0,0,1-1.7.86,4.08,4.08,0,0,1-2.11,0c-.67-.14-1.33-.42-2-.53A7.34,7.34,0,0,1,93.9,345.82Zm-7.92.1a1.2,1.2,0,0,1-.54-1.12c.11-.49.67-.61,1.1-.63a5.83,5.83,0,0,1,2.79.75,11.23,11.23,0,0,1,1.36.87c.32.22.61.47.92.69C89.74,347,87.54,347.33,86,345.92Z" style="fill:#e0e0e0"></path></g><g id="freepik--balloons--inject-306"><path d="M418.11,255.54a77,77,0,0,0,.7,11.85c.6,4.29,1.68,8.48,2.56,12.71a57.44,57.44,0,0,1,.13,22.55c-1.41,7.49-3.88,14.72-6.34,21.91-1.25,3.66-2.51,7.32-3.65,11s-2.86,7.38-3,11.22h-.82c.39-4.83,2.41-9.84,3.8-14.18,2.4-7.53,5.21-14.93,7.3-22.56s3.42-15.75,2.51-23.74c-.47-4.26-1.58-8.4-2.47-12.58A80,80,0,0,1,417.21,262a77.31,77.31,0,0,1,2.22-23.72c1.95-7.63,5.15-14.81,8.61-21.86,7-14.36,15.61-29.46,14.56-46-.52-8.15-3.44-15.93-3.77-24.11a52.81,52.81,0,0,1,3.74-21.92,48.32,48.32,0,0,1,2.33-4.87c.19-.35.46.07.33.32a53.86,53.86,0,0,0-4.43,34.62c.78,4,1.8,7.95,2.37,12,2.23,15.59-4.38,30.34-11.13,44-3.42,6.91-7,13.8-9.53,21.09A76.19,76.19,0,0,0,418.11,255.54Z" style="fill:#e0e0e0"></path><path d="M411.45,224.58c-.78,7.08-1,14.21-1.26,21.32a135.6,135.6,0,0,0,.44,21.33c.86,7,3.1,13.78,4.28,20.75a71.37,71.37,0,0,1,.31,19.8c-.83,7.42-3.27,14.7-5,22a75,75,0,0,0-2.12,17.06h-.55c-.26-13.88,3.54-21,6-33.81a70.75,70.75,0,0,0,1-19.92c-.62-6.93-2.74-13.56-4.09-20.36a97.63,97.63,0,0,1-1.43-20.77c.13-7,.36-14,.85-20.92a148.78,148.78,0,0,1,2.94-20.48c1.43-6.79,3.1-13.53,4.21-20.38a73.33,73.33,0,0,0,.78-20.86,46.9,46.9,0,0,0-6.58-18.87c-.11-.18,0-.65.25-.39,7.52,9.23,8.47,22.36,7.33,33.76C417.47,197.58,413,210.82,411.45,224.58Z" style="fill:#e0e0e0"></path><path d="M386.79,137c-.08-.32.33-.77.46-.31a190.85,190.85,0,0,1,5.08,22,96.31,96.31,0,0,1,.88,21.59c-1,14.8-4.57,29.57-3,44.47,2.62,25.48,20.54,47.67,18.62,73.87-.61,8.29-2.65,16.53-3.07,24.84a94.44,94.44,0,0,0,2.12,23.35h-.55A87.7,87.7,0,0,1,404.84,328c-.19-7.39,1.3-14.56,2.41-21.83a65.34,65.34,0,0,0,.08-21A108,108,0,0,0,402,266.47c-4.36-12-9.77-23.66-12-36.26-2.58-14.36.17-28.78,1.71-43.09a108.24,108.24,0,0,0,.15-25.12C390.81,153.56,388.75,145.27,386.79,137Z" style="fill:#e0e0e0"></path><g id="freepik--balloons--inject-306"><path d="M445,120.5a4.25,4.25,0,0,0,2.67,4.92,3,3,0,0,0,2.87-.51c.27-.29.45-.69.14-1a1.23,1.23,0,0,0-.94-.25,2.3,2.3,0,0,0-1.66.65,3.44,3.44,0,0,0,.33,5,2.81,2.81,0,0,0,2.69.3,2,2,0,0,0,1-.79c.27-.48.32-1.35-.5-1.23a2.28,2.28,0,0,0-1.7,2.42,2.65,2.65,0,0,0,2.93,2.26c.41,0,.19.62-.1.68a3.07,3.07,0,0,1-3.52-2,3.33,3.33,0,0,1,1.29-3.62,2.17,2.17,0,0,1,1.87-.48,1.26,1.26,0,0,1,.79,1.32c-.07,1.4-1.61,2.3-2.86,2.43-3.24.35-5-3.35-3.42-6a3.6,3.6,0,0,1,4-1.66,1.22,1.22,0,0,1,.79,1.46,2.39,2.39,0,0,1-1.49,1.56,4.25,4.25,0,0,1-4.46-.7,4.59,4.59,0,0,1-1.12-4.93c.1-.29.48-.23.42.09Z" style="fill:#e0e0e0"></path><path d="M448.13,120.82h0c.38-1.79-2.28-7.5-3-7.65s-5.08,3.94-5.48,5.85h0a2.16,2.16,0,0,0,.86,2,6.73,6.73,0,0,0,6,1.27,2.14,2.14,0,0,0,1.62-1.47Z" style="fill:#080808"></path><path d="M448.13,120.82h0c.38-1.79-2.28-7.5-3-7.65s-5.08,3.94-5.48,5.85h0a2.16,2.16,0,0,0,.86,2,6.73,6.73,0,0,0,6,1.27,2.14,2.14,0,0,0,1.62-1.47Z" style="opacity:0.4"></path><path d="M476.84,86.26c-2.92,13.72-17.37,28.75-32.15,29-13.31-7-20.45-25.9-17.52-39.61S441.66,51,457.66,54.44,479.76,72.54,476.84,86.26Z" style="fill:#080808"></path><path d="M476.84,86.26c-2.92,13.72-17.37,28.75-32.15,29-13.31-7-20.45-25.9-17.52-39.61S441.66,51,457.66,54.44,479.76,72.54,476.84,86.26Z" style="opacity:0.2"></path><path d="M426.71,83.07s.89,14,17,18.47c15.48,4.36,31.92-10.15,33.88-21.66a32.22,32.22,0,0,1-.71,6.38c-2.92,13.72-17.37,28.75-32.15,29-11-5.79-17.81-19.77-18.15-32.19Z" style="opacity:0.1"></path><path d="M386.87,138.42a4.49,4.49,0,0,1-4.59,6.17c-1.21-.16-3.21-1.33-2.11-2.78a2.31,2.31,0,0,1,2.05-.61,3.28,3.28,0,0,1,2.11,1c2.14,2.19.93,6.26-2.15,6.71a3.26,3.26,0,0,1-3.44-1.56,1.49,1.49,0,0,1,1.89-2.06,3.17,3.17,0,0,1,2,3.76,3.27,3.27,0,0,1-3.64,2.27c-.38-.07,0-.7.25-.68a2.52,2.52,0,0,0,2.53-1.51,2.47,2.47,0,0,0-.64-2.58c-.33-.32-1-.76-1.43-.56-.26.11-.27.09-.24.38a1,1,0,0,0,.07.33,1.63,1.63,0,0,0,.44.69,2.72,2.72,0,0,0,2.53.63c2.09-.52,2.5-3.28,1.4-4.87A2.62,2.62,0,0,0,381.1,142c-.8.23-.17,1,.24,1.33a3,3,0,0,0,1.68.49c2.66,0,3.89-2.74,3.42-5.06,0-.2.3-.64.43-.33Z" style="fill:#e0e0e0"></path><path d="M392.78,137h0c-.5-1.76-5.54-5.55-6.23-5.35s-2.63,5.86-2.1,7.74h0a2.17,2.17,0,0,0,1.71,1.36,6.75,6.75,0,0,0,5.89-1.69,2.15,2.15,0,0,0,.73-2.06Z" style="fill:#080808"></path><path d="M392.78,137h0c-.5-1.76-5.54-5.55-6.23-5.35s-2.63,5.86-2.1,7.74h0a2.17,2.17,0,0,0,1.71,1.36,6.75,6.75,0,0,0,5.89-1.69,2.15,2.15,0,0,0,.73-2.06Z" style="fill:#fff;opacity:0.30000000000000004"></path><path d="M401.89,93c3.86,13.48-1.83,33.53-14.74,40.72-15,.1-30.22-13.25-34.08-26.73S354.28,78.47,370,74,398,79.55,401.89,93Z" style="fill:#080808"></path><path d="M401.89,93c3.86,13.48-1.83,33.53-14.74,40.72-15,.1-30.22-13.25-34.08-26.73S354.28,78.47,370,74,398,79.55,401.89,93Z" style="fill:#fff;opacity:0.5"></path><path d="M356.14,113.77s7.34,11.9,23.65,8.34c15.71-3.42,23.4-24,19.72-35a32,32,0,0,1,2.38,6c3.86,13.48-1.83,33.53-14.74,40.72-12.46.08-25-9.07-31.15-19.88Z" style="opacity:0.05"></path><path d="M411,150.36a4.47,4.47,0,0,1-3.22,6.95c-1.15.1-3.21-.46-2.72-2s2.95-1.44,4.05-.81c2.69,1.54,2.55,5.84-.33,7a3.45,3.45,0,0,1-3.67-.51,1.48,1.48,0,0,1,1-2.62,3.15,3.15,0,0,1,2.95,3.26,3.28,3.28,0,0,1-3.09,3c-.41,0-.2-.63.1-.69a2.4,2.4,0,0,0,.89-4.47c-.31-.19-1.48-.66-1.62,0-.08.43.5,1,.81,1.15a2.69,2.69,0,0,0,2.61,0c1.76-1,1.64-3.54.42-4.88a2.89,2.89,0,0,0-1.31-.86,2.49,2.49,0,0,0-1.93.21c-.65.53.43,1.19.86,1.32a3.06,3.06,0,0,0,1.59,0c2.54-.62,3.09-3.53,2.17-5.66-.1-.23.21-.68.4-.39Z" style="fill:#e0e0e0"></path><path d="M417.77,150.34h0c-.12-1.83-4.23-6.61-4.95-6.56s-3.82,5.16-3.7,7.11h0a2.15,2.15,0,0,0,1.37,1.69,6.72,6.72,0,0,0,6.12-.39,2.17,2.17,0,0,0,1.16-1.85Z" style="fill:#080808"></path><path d="M417.77,150.34h0c-.12-1.83-4.23-6.61-4.95-6.56s-3.82,5.16-3.7,7.11h0a2.15,2.15,0,0,0,1.37,1.69,6.72,6.72,0,0,0,6.12-.39,2.17,2.17,0,0,0,1.16-1.85Z" style="opacity:0.30000000000000004"></path><path d="M436.07,109.31c.9,14-9,32.37-23.11,36.63-14.7-3.12-26.68-19.41-27.57-33.4S392.68,84.89,409,83.85,435.18,95.31,436.07,109.31Z" style="fill:#080808"></path><path d="M387,119.78S391.57,133,408.26,133c16.08,0,28-18.39,26.77-30a31.91,31.91,0,0,1,1,6.34c.9,14-9,32.37-23.11,36.63-12.19-2.59-22.49-14.22-26.17-26.09Z" style="opacity:0.1"></path></g><path d="M395.14,353c0,.07.11.11.12,0a.87.87,0,0,1,1.14-.63,3.32,3.32,0,0,1,1.29,1,3,3,0,0,0,2.11,1.14c.79,0,1.26-.62,1.79-1.13.82-.78,1.5.11,2.41.17,1.6.09,3.08-1.71,3.73-3a5.89,5.89,0,0,0,.49-1.31,6.88,6.88,0,0,0,1.55,3.61c1.21,1.46,3.38,2.54,5.13,1.31a2.66,2.66,0,0,0,.87-1c.25-.55.41-1.1,1.14-1.05,1.21.07,1.4,1.32,2.12,2a1,1,0,0,0,1.59-.22,8.9,8.9,0,0,0,.38-1.34c.43-1.07,2.39-1.06,2.09.6,0,0,.06.13.07.06a1.32,1.32,0,0,0-2.44-1c-.2.42-.21,1.56-.91,1.51-.5,0-.71-.86-.9-1.23a2.37,2.37,0,0,0-1.89-1.44,2,2,0,0,0-1.91,1.37c-.6,1.23-1.91,1.27-3,.59a5.92,5.92,0,0,1-2.16-2.56,5.58,5.58,0,0,1-.46-1.54c-.05-.29-.05-.61-.1-.91a6.89,6.89,0,0,0,2.6,0,5.11,5.11,0,0,0,3.23-2c.7-1.08.51-2.62-.9-2.92a5.46,5.46,0,0,0-3.55.74,8.05,8.05,0,0,0-2.86,2.42.45.45,0,0,0-.14-.06s0,0,0,0a5.19,5.19,0,0,0-2.63-2.29,5,5,0,0,0-3.86-.28,2.53,2.53,0,0,0-1.55,2.89,2.51,2.51,0,0,0,1.33,1.31,5.66,5.66,0,0,0,1.9.74,5.93,5.93,0,0,0,2.1-.09,9.45,9.45,0,0,0,1.15-.34l.48-.18c.16-.07.31-.16.47-.24a5.69,5.69,0,0,1,0,1,5.19,5.19,0,0,1-1,2.47c-.63.83-1.48,1.5-2.55,1.1a2,2,0,0,0-2,0c-.57.37-1,1.22-1.76,1.12s-1.5-1.07-2.21-1.54a1.72,1.72,0,0,0-1.95-.1A1.08,1.08,0,0,0,395.14,353Zm12-6.29c-.68.11-1.34.39-2,.53a4.08,4.08,0,0,1-2.11,0,5.8,5.8,0,0,1-1.7-.86.85.85,0,0,1-.31-1.19,1.57,1.57,0,0,1,1.3-.53,5.78,5.78,0,0,1,2,.31,6.64,6.64,0,0,1,1.84.93A7.34,7.34,0,0,1,407.11,346.67Zm1.28-.19c.31-.22.6-.47.92-.69a11.23,11.23,0,0,1,1.36-.87,5.83,5.83,0,0,1,2.79-.75c.43,0,1,.14,1.1.63a1.2,1.2,0,0,1-.54,1.12C412.46,347.33,410.26,347,408.39,346.48Z" style="fill:#e0e0e0"></path></g></g><g id="freepik--Text--inject-306"><g id="freepik--Ribbon--inject-306"><g id="freepik--ribbon--inject-306"><path d="M478.83,379.28c-11.89,21.33-39.21,23.85-78,11.28-25-8.11-41.86,3.27-41.86,14.77V351.12c0-11.5,16.66-22,41.86-14.77s55.27,21.89,79.26-13.72c-1.24,14-17.08,48.44-23.76,52.86C463.74,383.33,478.83,379.28,478.83,379.28Z" style="fill:#080808"></path><path d="M478.83,379.28c-11.89,21.33-39.21,23.85-78,11.28-25-8.11-41.86,3.27-41.86,14.77V351.12c0-11.5,16.66-22,41.86-14.77s55.27,21.89,79.26-13.72c-1.24,14-17.08,48.44-23.76,52.86C463.74,383.33,478.83,379.28,478.83,379.28Z" style="opacity:0.1"></path><path d="M456.35,375.49a13.61,13.61,0,0,0,2.35,2.21l.64.47.68.38a11.77,11.77,0,0,0,1.37.7,19.11,19.11,0,0,0,5.79,1.46,28.16,28.16,0,0,0,11.65-1.43c-1,.12-1.94.25-2.91.31s-1.93.17-2.9.19a39.65,39.65,0,0,1-5.77-.14,24.76,24.76,0,0,1-5.67-1.17,11.38,11.38,0,0,1-1.36-.55l-.69-.29-.64-.39a8.73,8.73,0,0,1-1.3-.8C457.18,376.12,456.77,375.8,456.35,375.49Z" style="fill:#080808"></path><path d="M456.35,375.49a13.61,13.61,0,0,0,2.35,2.21l.64.47.68.38a11.77,11.77,0,0,0,1.37.7,19.11,19.11,0,0,0,5.79,1.46,28.16,28.16,0,0,0,11.65-1.43c-1,.12-1.94.25-2.91.31s-1.93.17-2.9.19a39.65,39.65,0,0,1-5.77-.14,24.76,24.76,0,0,1-5.67-1.17,11.38,11.38,0,0,1-1.36-.55l-.69-.29-.64-.39a8.73,8.73,0,0,1-1.3-.8C457.18,376.12,456.77,375.8,456.35,375.49Z" style="fill:#fff;opacity:0.35000000000000003"></path><path d="M400.85,336.35l10.35,3.43c3.45,1.13,6.92,2.22,10.4,3.19a74,74,0,0,0,21.31,3.08,40.27,40.27,0,0,0,20.8-6.27,48.44,48.44,0,0,0,8.93-7.5,71,71,0,0,0,7.47-9.65c-4.77,6.66-10.3,12.53-16.7,16.41a40.57,40.57,0,0,1-10,4.4A42.48,42.48,0,0,1,442.89,345c-7.1.26-14.18-1.07-21.15-2.81S407.84,338.14,400.85,336.35Z" style="fill:#080808"></path><path d="M400.85,336.35l10.35,3.43c3.45,1.13,6.92,2.22,10.4,3.19a74,74,0,0,0,21.31,3.08,40.27,40.27,0,0,0,20.8-6.27,48.44,48.44,0,0,0,8.93-7.5,71,71,0,0,0,7.47-9.65c-4.77,6.66-10.3,12.53-16.7,16.41a40.57,40.57,0,0,1-10,4.4A42.48,42.48,0,0,1,442.89,345c-7.1.26-14.18-1.07-21.15-2.81S407.84,338.14,400.85,336.35Z" style="fill:#fff;opacity:0.35000000000000003"></path><path d="M400.85,390.56c19.46,6.31,36,8.81,49.21,7.05C430.59,400.14,405,389.7,397.73,387s-20-4.24-27.6-1.06-10.78-1.22-11.14-7.74v27.17C359,393.83,375.82,382.45,400.85,390.56Z" style="opacity:0.1"></path><path d="M21.17,379.28c11.89,21.33,39.21,23.85,78,11.28,25-8.11,41.86,3.27,41.86,14.77V351.12c0-11.5-16.66-22-41.86-14.77s-55.27,21.89-79.26-13.72c1.24,14,17.08,48.44,23.76,52.86C36.26,383.33,21.17,379.28,21.17,379.28Z" style="fill:#080808"></path><path d="M21.17,379.28c11.89,21.33,39.21,23.85,78,11.28,25-8.11,41.86,3.27,41.86,14.77V351.12c0-11.5-16.66-22-41.86-14.77s-55.27,21.89-79.26-13.72c1.24,14,17.08,48.44,23.76,52.86C36.26,383.33,21.17,379.28,21.17,379.28Z" style="opacity:0.1"></path><path d="M43.65,375.49a13.61,13.61,0,0,1-2.35,2.21l-.64.47-.68.38a11.77,11.77,0,0,1-1.37.7,19.11,19.11,0,0,1-5.79,1.46,26.37,26.37,0,0,1-5.89-.1,26.42,26.42,0,0,1-5.76-1.33c1,.12,1.94.25,2.91.31s1.93.17,2.9.19a39.65,39.65,0,0,0,5.77-.14,24.76,24.76,0,0,0,5.67-1.17,11.38,11.38,0,0,0,1.36-.55l.69-.29.64-.39a8.73,8.73,0,0,0,1.3-.8C42.82,376.12,43.23,375.8,43.65,375.49Z" style="fill:#080808"></path><path d="M43.65,375.49a13.61,13.61,0,0,1-2.35,2.21l-.64.47-.68.38a11.77,11.77,0,0,1-1.37.7,19.11,19.11,0,0,1-5.79,1.46,26.37,26.37,0,0,1-5.89-.1,26.42,26.42,0,0,1-5.76-1.33c1,.12,1.94.25,2.91.31s1.93.17,2.9.19a39.65,39.65,0,0,0,5.77-.14,24.76,24.76,0,0,0,5.67-1.17,11.38,11.38,0,0,0,1.36-.55l.69-.29.64-.39a8.73,8.73,0,0,0,1.3-.8C42.82,376.12,43.23,375.8,43.65,375.49Z" style="fill:#fff;opacity:0.35000000000000003"></path><path d="M99.15,336.35,88.8,339.78c-3.45,1.13-6.92,2.22-10.4,3.19a74,74,0,0,1-21.31,3.08,40.27,40.27,0,0,1-20.8-6.27,48.44,48.44,0,0,1-8.93-7.5,71,71,0,0,1-7.47-9.65c4.77,6.66,10.3,12.53,16.7,16.41a40.57,40.57,0,0,0,10,4.4A42.48,42.48,0,0,0,57.11,345c7.1.26,14.18-1.07,21.15-2.81S92.16,338.14,99.15,336.35Z" style="fill:#080808"></path><path d="M99.15,336.35,88.8,339.78c-3.45,1.13-6.92,2.22-10.4,3.19a74,74,0,0,1-21.31,3.08,40.27,40.27,0,0,1-20.8-6.27,48.44,48.44,0,0,1-8.93-7.5,71,71,0,0,1-7.47-9.65c4.77,6.66,10.3,12.53,16.7,16.41a40.57,40.57,0,0,0,10,4.4A42.48,42.48,0,0,0,57.11,345c7.1.26,14.18-1.07,21.15-2.81S92.16,338.14,99.15,336.35Z" style="fill:#fff;opacity:0.35000000000000003"></path><path d="M99.15,390.56c-19.46,6.31-36,8.81-49.21,7.05C69.41,400.14,95,389.7,102.27,387s20-4.24,27.6-1.06,10.78-1.22,11.14-7.74v27.17C141,393.83,124.18,382.45,99.15,390.56Z" style="opacity:0.1"></path><path d="M109.69,371.23v51.88c0-10.05,31.32-8.13,31.32-18.54V351.12C141,361.54,109.69,361.18,109.69,371.23Z" style="fill:#080808"></path><path d="M109.69,371.23v51.88c0-10.05,31.32-8.13,31.32-18.54V351.12C141,361.54,109.69,361.18,109.69,371.23Z" style="opacity:0.30000000000000004"></path><path d="M109.74,370.69a4.71,4.71,0,0,0,0,.54v51.88c0-10.05,31.32-8.13,31.32-18.54V382C122.9,380.82,109.84,376.86,109.74,370.69Z" style="opacity:0.30000000000000004"></path><path d="M390.31,371.23v51.88c0-10.05-31.32-8.13-31.32-18.54V351.12C359,361.54,390.31,361.18,390.31,371.23Z" style="fill:#080808"></path><path d="M390.31,371.23v51.88c0-10.05-31.32-8.13-31.32-18.54V351.12C359,361.54,390.31,361.18,390.31,371.23Z" style="opacity:0.30000000000000004"></path><path d="M390.26,370.69a4.71,4.71,0,0,1,.05.54v51.88c0-10.05-31.32-8.13-31.32-18.54V382C377.1,380.82,390.16,376.86,390.26,370.69Z" style="opacity:0.30000000000000004"></path><path d="M250,399.63c-52.34,0-140.31-12.39-140.31-28.4v51.88c0,17.06,67.93,32,140.31,32s140.31-15,140.31-32V371.23C390.31,387.24,302.34,399.63,250,399.63Z" style="fill:#080808"></path><path d="M250,399.63c-52.34,0-140.31-12.39-140.31-28.4v51.88c0,17.06,67.93,32,140.31,32s140.31-15,140.31-32V371.23C390.31,387.24,302.34,399.63,250,399.63Z" style="fill:#fff;opacity:0.15"></path></g><g id="freepik--text--inject-306"><path d="M146.64,427.92c1.65-8,2.48-12,4.13-19.94a1.09,1.09,0,0,1,.4-.72,1,1,0,0,1,.78-.1c2.09.43,3.14.64,5.24,1a6.84,6.84,0,0,1,3.83,2.1c1,1.12,1.33,2.88.89,5.31a6.93,6.93,0,0,1-1.77,3.87,5.23,5.23,0,0,1-2.73,1.5A6.53,6.53,0,0,1,155,421c-1.26-.24-1.89-.36-3.16-.62-.65,3.29-1,4.93-1.64,8.22q-.15.78-1.59.48l-.66-.13C147,428.8,146.53,428.44,146.64,427.92Zm8.62-9.75a2.38,2.38,0,0,0,1.88-.48,4.22,4.22,0,0,0,1.31-2.71,3.78,3.78,0,0,0-.27-2.83,2.61,2.61,0,0,0-1.7-1.12l-2.68-.53c-.57,2.84-.86,4.26-1.42,7.1Z" style="fill:#263238"></path><path d="M162.49,430.94l3.5-20.05c.12-.69.5-1,1.15-.86l4.85.81a7.1,7.1,0,0,1,4.43,2.07q1.38,1.57.93,4.61a5.46,5.46,0,0,1-3.79,4.83l0,.13a3.06,3.06,0,0,1,1,1.43,15.52,15.52,0,0,1,.67,2.6c.44,2.56.66,3.84,1.12,6.39l0,.25a.74.74,0,0,1,0,.21c-.05.39-.59.52-1.6.37l-.72-.11a2.81,2.81,0,0,1-.94-.3.79.79,0,0,1-.42-.52c-.39-2.55-.58-3.83-.95-6.38a4.57,4.57,0,0,0-.81-2.18,2.89,2.89,0,0,0-1.77-.83l-1.68-.28c-.56,3.37-.84,5.06-1.41,8.42-.08.52-.62.7-1.61.53l-.62-.1C162.85,431.81,162.4,431.46,162.49,430.94Zm8.28-10.34a2.12,2.12,0,0,0,1.91-.74,4.28,4.28,0,0,0,1.12-2.4,3.86,3.86,0,0,0-.31-2.61,2.43,2.43,0,0,0-1.77-1.11l-2.63-.43c-.46,2.73-.69,4.09-1.14,6.83Z" style="fill:#263238"></path><path d="M179.6,434.1a1.12,1.12,0,0,1-.12-.81c1.11-7.94,1.66-11.91,2.77-19.85a1.14,1.14,0,0,1,.33-.75.91.91,0,0,1,.76-.15c3.67.5,5.5.74,9.17,1.17.46.06.65.46.56,1.21l-.07.63c-.09.75-.37,1.1-.83,1.05-2.69-.32-4-.49-6.71-.84l-.85,6.39c2.43.32,3.65.48,6.09.77.47.06.66.46.57,1.21,0,.26,0,.38-.07.63-.09.76-.37,1.1-.85,1.05-2.45-.3-3.67-.45-6.12-.78-.37,2.76-.55,4.14-.92,6.9,2.77.37,4.16.54,6.94.87a.6.6,0,0,1,.52.33,1.77,1.77,0,0,1,.07.88c0,.26-.05.38-.08.63a1.7,1.7,0,0,1-.26.85.63.63,0,0,1-.6.2c-3.83-.46-5.75-.7-9.58-1.23A1,1,0,0,1,179.6,434.1Z" style="fill:#263238"></path><path d="M195.81,436.15a7,7,0,0,1-2.22-1.37,2.22,2.22,0,0,1-.26-.4.87.87,0,0,1,0-.47,3.56,3.56,0,0,1,.45-1.33c.25-.45.5-.66.76-.63a.85.85,0,0,1,.37.15l.32.21a6.47,6.47,0,0,0,3.76,1.57,3.76,3.76,0,0,0,2.57-.57,3.31,3.31,0,0,0,.58-4.49,10.57,10.57,0,0,0-2.29-1.84,21.87,21.87,0,0,1-2.65-1.94,6,6,0,0,1-1.51-2.14,5.91,5.91,0,0,1-.34-3,5.75,5.75,0,0,1,2.33-4.29,6.94,6.94,0,0,1,4.91-1.15,8.92,8.92,0,0,1,2.12.47,6.55,6.55,0,0,1,1.75.91.61.61,0,0,1,.26.59,3.68,3.68,0,0,1-.44,1.33c-.26.5-.5.74-.74.72a2,2,0,0,1-.56-.24,6.73,6.73,0,0,0-2.65-.82,3.42,3.42,0,0,0-2.41.54,2.68,2.68,0,0,0-1.11,2,3,3,0,0,0,.26,1.69,3.78,3.78,0,0,0,1,1.27c.44.36,1.09.84,1.94,1.4a19.55,19.55,0,0,1,2.44,1.82,5.73,5.73,0,0,1,1.46,2.05A6.71,6.71,0,0,1,204,435.6a7.23,7.23,0,0,1-5.25,1.25A10.87,10.87,0,0,1,195.81,436.15Z" style="fill:#263238"></path><path d="M209.1,436.87c.67-8.25,1-12.37,1.66-20.61.05-.53.53-.75,1.46-.68l.73.06c.91.06,1.35.36,1.31.89-.61,8.24-.91,12.37-1.51,20.62,0,.52-.54.75-1.49.68l-.76-.06C209.53,437.69,209.06,437.39,209.1,436.87Z" style="fill:#263238"></path><path d="M217.85,438a1.16,1.16,0,0,1-.18-.8c.51-8,.77-12,1.27-20a1.21,1.21,0,0,1,.28-.77.91.91,0,0,1,.74-.21c2.21.14,3.32.2,5.53.31,5.34.27,7.88,4,7.64,11.4-.13,3.85-.94,6.64-2.44,8.34a7.44,7.44,0,0,1-6.31,2.36c-2.31-.11-3.47-.18-5.78-.32A1,1,0,0,1,217.85,438Zm6.58-2.29a3.86,3.86,0,0,0,3.58-1.76q1.31-1.87,1.47-6.17.35-8.14-4.23-8.36l-2.91-.15c-.37,6.51-.55,9.77-.92,16.28Z" style="fill:#263238"></path><path d="M237,438.82a1.14,1.14,0,0,1-.21-.8c.21-8,.31-12,.52-20a1.2,1.2,0,0,1,.24-.79.94.94,0,0,1,.74-.23c3.69.08,5.53.11,9.22.13.47,0,.7.38.7,1.14,0,.25,0,.38,0,.63,0,.76-.24,1.14-.7,1.14-2.7,0-4,0-6.75-.08,0,2.58-.08,3.87-.12,6.45,2.45,0,3.67.06,6.12.07.48,0,.71.39.71,1.15,0,.25,0,.38,0,.63,0,.76-.24,1.13-.72,1.13-2.46,0-3.7,0-6.16-.08-.05,2.79-.08,4.18-.13,7,2.79.05,4.18.07,7,.08a.6.6,0,0,1,.56.27,1.73,1.73,0,0,1,.17.87c0,.26,0,.38,0,.64a1.68,1.68,0,0,1-.16.86.64.64,0,0,1-.57.27c-3.86,0-5.79-.05-9.64-.14A1,1,0,0,1,237,438.82Z" style="fill:#263238"></path><path d="M251.79,438.51c0-8.27,0-12.41-.07-20.68,0-.53.46-.79,1.4-.8h.76a2.06,2.06,0,0,1,.84.13,1,1,0,0,1,.54.55c2.82,5.18,4.26,7.76,7.23,12.9a16.5,16.5,0,0,1,1,2.12l.16-.06a10.62,10.62,0,0,1-.32-2.21c-.13-5.12-.2-7.68-.34-12.8,0-.53.45-.8,1.38-.83h.48c.93,0,1.41.22,1.42.74.28,8.27.41,12.4.69,20.67,0,.52-.46.8-1.44.83l-.66,0c-.73,0-1.19-.16-1.38-.56-3.13-5.32-4.66-8-7.63-13.35a12,12,0,0,1-.86-2l-.16.07a10.14,10.14,0,0,1,.28,2.11c0,5.25.08,7.87.13,13.12,0,.53-.48.8-1.45.81h-.5C252.28,439.3,251.8,439,251.79,438.51Z" style="fill:#263238"></path><path d="M274.89,437.9l-.9-18.47-4.32.19a.54.54,0,0,1-.52-.25,1.73,1.73,0,0,1-.19-.86l0-.63a1.87,1.87,0,0,1,.13-.88.55.55,0,0,1,.5-.29c4.8-.19,7.2-.32,12-.63a.58.58,0,0,1,.56.24,1.75,1.75,0,0,1,.22.85c0,.26,0,.38,0,.63a1.79,1.79,0,0,1-.1.88.59.59,0,0,1-.53.31c-1.71.11-2.57.16-4.28.25.41,7.39.62,11.08,1,18.47,0,.53-.45.82-1.42.87l-.7,0Q274.94,438.7,274.89,437.9Z" style="fill:#263238"></path><path d="M290.26,437.62a7.14,7.14,0,0,1-2.44-.94,1.67,1.67,0,0,1-.32-.35.92.92,0,0,1-.13-.45,3.66,3.66,0,0,1,.2-1.39c.17-.49.38-.74.64-.76a.78.78,0,0,1,.39.09l.36.14a6.46,6.46,0,0,0,4,.87,3.69,3.69,0,0,0,2.42-1,2.89,2.89,0,0,0,.77-2.42,2.93,2.93,0,0,0-1-2.1,10,10,0,0,0-2.58-1.4,21.67,21.67,0,0,1-3-1.44,5.93,5.93,0,0,1-1.87-1.83,6.57,6.57,0,0,1,.65-7.51,6.92,6.92,0,0,1,4.61-2,8.8,8.8,0,0,1,2.18.08,6.59,6.59,0,0,1,1.88.58.6.6,0,0,1,.37.53,4,4,0,0,1-.19,1.39c-.17.54-.37.82-.6.85a2.32,2.32,0,0,1-.59-.14,6.8,6.8,0,0,0-2.77-.33,3.46,3.46,0,0,0-2.26,1,2.66,2.66,0,0,0-.73,2.2,3,3,0,0,0,.56,1.62,4,4,0,0,0,1.23,1.06,23.92,23.92,0,0,0,2.17,1,21,21,0,0,1,2.73,1.35,5.92,5.92,0,0,1,1.8,1.76,6.09,6.09,0,0,1,.89,2.79,6,6,0,0,1-1.47,4.8,7.18,7.18,0,0,1-4.93,2.17A10.46,10.46,0,0,1,290.26,437.62Z" style="fill:#263238"></path><path d="M284.3,419.51c-.17-.06-.25-.16-.25-.29v-5.84a.69.69,0,0,1,.26-.58,1.15,1.15,0,0,1,.78-.22h.28a1.11,1.11,0,0,1,.73.21.64.64,0,0,1,.25.54,18.42,18.42,0,0,1-.26,3.2,10.57,10.57,0,0,1-.63,2.24c-.24.54-.46.82-.64.83A1.5,1.5,0,0,1,284.3,419.51Z" style="fill:#263238"></path><path d="M308.14,435.92a1.1,1.1,0,0,1-.32-.76c-.88-8-1.31-12-2.19-19.92a1.15,1.15,0,0,1,.14-.81.92.92,0,0,1,.7-.33c2.2-.25,3.3-.38,5.5-.65,5.32-.65,8.48,2.61,9.5,9.91.53,3.82.22,6.7-1,8.64a7.43,7.43,0,0,1-5.82,3.41c-2.3.29-3.45.42-5.75.68A1,1,0,0,1,308.14,435.92Zm6.09-3.38a3.88,3.88,0,0,0,3.23-2.35q1-2.07.39-6.34c-.71-5.39-2.58-7.87-5.62-7.5l-2.89.35,1.89,16.2Z" style="fill:#263238"></path><path d="M324.88,433.54a3.47,3.47,0,0,1,0-.48c1.11-8.45,1.61-12.67,2.53-21.12.08-.48.53-.79,1.35-.92l1.32-.21q1.32-.21,1.56.45c3.51,7.74,5.32,11.6,9,19.28a1.31,1.31,0,0,1,.18.45c.07.37-.33.63-1.18.78l-.89.16q-1.22.21-1.44-.3c-.82-1.81-1.22-2.72-2-4.53-2.56.42-3.85.63-6.42,1-.19,2-.28,3-.48,4.94,0,.37-.45.61-1.24.73l-.86.12C325.4,434,324.93,433.92,324.88,433.54Zm9.29-9.14c-1.36-3.06-2-4.59-3.36-7.66-.14-.32-.37-1-.68-2l-.16,0v.77a13.14,13.14,0,0,1-.05,1.32c-.3,3.32-.45,5-.77,8.31C331.16,424.89,332.16,424.73,334.17,424.4Z" style="fill:#263238"></path><path d="M346.37,429.75c-.68-3.6-1-5.4-1.69-9-2.95-4-4.4-5.95-7.25-10a1.55,1.55,0,0,1-.33-.58c-.07-.37.39-.65,1.38-.82l.85-.16a3.45,3.45,0,0,1,.93-.05.74.74,0,0,1,.54.3c2,3.12,3.06,4.68,5.14,7.78.79-3.66,1.18-5.5,1.92-9.17a.61.61,0,0,1,.36-.46,4.44,4.44,0,0,1,.92-.28l.69-.14q1.43-.26,1.53.27a1.63,1.63,0,0,1-.06.66c-1.18,4.81-1.79,7.22-3.07,12,.7,3.56,1,5.34,1.74,8.9.1.52-.33.87-1.29,1.06l-.69.13C347,430.44,346.47,430.27,346.37,429.75Z" style="fill:#263238"></path></g><g id="freepik--Stars--inject-306"><polygon points="138.3 403.87 136.78 405.89 134.26 405.77 135.7 407.85 134.81 410.21 137.23 409.48 139.2 411.05 139.25 408.53 141.36 407.14 138.97 406.31 138.3 403.87" style="fill:#fafafa"></polygon><polygon points="131.19 412.96 128.61 416.36 124.35 416.17 126.79 419.67 125.29 423.66 129.37 422.42 132.71 425.08 132.79 420.82 136.35 418.47 132.32 417.07 131.19 412.96" style="fill:#fafafa"></polygon><polygon points="125.48 400.53 123.5 403.14 120.22 403 122.09 405.69 120.94 408.76 124.08 407.81 126.65 409.86 126.71 406.58 129.46 404.77 126.35 403.69 125.48 400.53" style="fill:#fafafa"></polygon><polygon points="361.7 403.87 363.22 405.89 365.74 405.77 364.3 407.85 365.19 410.21 362.77 409.48 360.8 411.05 360.75 408.53 358.64 407.14 361.02 406.31 361.7 403.87" style="fill:#fafafa"></polygon><polygon points="368.81 412.96 371.39 416.36 375.65 416.17 373.21 419.67 374.71 423.66 370.63 422.42 367.29 425.08 367.21 420.82 363.65 418.47 367.68 417.07 368.81 412.96" style="fill:#fafafa"></polygon><polygon points="374.52 400.53 376.5 403.14 379.78 403 377.91 405.69 379.06 408.76 375.92 407.81 373.35 409.86 373.29 406.58 370.55 404.77 373.65 403.69 374.52 400.53" style="fill:#fafafa"></polygon></g></g></g></svg>