<svg xmlns="http://www.w3.org/2000/svg" viewBox="0 0 500 500"><g id="freepik--background-simple--inject-7"><path d="M382.69,117.28a223.36,223.36,0,0,0-10.8-19.63C326,24.92,203.16-14.68,142.29,60.5c-14.51,17.92-19.57,39.57-29.33,60.12-22.22,46.74-63.71,74.68-89.73,118C3.06,272.13,5.75,315.13,17,351.4c12.22,39.41,33.74,66.93,68.16,87.85C123.75,462.71,165,456.2,206.72,448c18.76-3.67,38.1-7.41,57.28-6,24,1.75,47.72,8.82,71.54,12.25,24.77,3.58,50.48,4.42,74.35-3.36C486.32,426,504.42,309.16,473,242.24c-11.12-23.69-30-42-47.49-60.51C406.6,161.72,395,142.13,382.69,117.28Z" style="fill:#92E3A9"></path><path d="M382.69,117.28a223.36,223.36,0,0,0-10.8-19.63C326,24.92,203.16-14.68,142.29,60.5c-14.51,17.92-19.57,39.57-29.33,60.12-22.22,46.74-63.71,74.68-89.73,118C3.06,272.13,5.75,315.13,17,351.4c12.22,39.41,33.74,66.93,68.16,87.85C123.75,462.71,165,456.2,206.72,448c18.76-3.67,38.1-7.41,57.28-6,24,1.75,47.72,8.82,71.54,12.25,24.77,3.58,50.48,4.42,74.35-3.36C486.32,426,504.42,309.16,473,242.24c-11.12-23.69-30-42-47.49-60.51C406.6,161.72,395,142.13,382.69,117.28Z" style="fill:#fff;opacity:0.7000000000000001"></path></g><g id="freepik--Clock--inject-7"><path d="M324.26,134.81a32.66,32.66,0,1,1,32.66-32.66A32.69,32.69,0,0,1,324.26,134.81Zm0-64.32a31.66,31.66,0,1,0,31.66,31.66A31.69,31.69,0,0,0,324.26,70.49Z" style="fill:#263238"></path><path d="M324.26,130.29a28.14,28.14,0,1,1,28.15-28.14A28.17,28.17,0,0,1,324.26,130.29Zm0-55.28a27.14,27.14,0,1,0,27.15,27.14A27.17,27.17,0,0,0,324.26,75Z" style="fill:#263238"></path><path d="M318,113.39a.57.57,0,0,1-.25-.06.51.51,0,0,1-.18-.69l6.23-10.74a.5.5,0,0,1,.43-.25H343.4a.5.5,0,0,1,.5.5.5.5,0,0,1-.5.5H324.55l-6.09,10.5A.51.51,0,0,1,318,113.39Z" style="fill:#263238"></path></g><g id="freepik--Calendars--inject-7"><path d="M137.22,142.17h-54a.5.5,0,0,1-.5-.5V94.57a.5.5,0,0,1,.5-.5h54a.5.5,0,0,1,.5.5v47.1A.5.5,0,0,1,137.22,142.17Zm-53.53-1h53V95.07h-53Z" style="fill:#263238"></path><path d="M93.11,113.89H88.68a.5.5,0,0,1-.5-.5V109a.51.51,0,0,1,.5-.5h4.43a.5.5,0,0,1,.5.5v4.43A.5.5,0,0,1,93.11,113.89Zm-3.93-1h3.43v-3.43H89.18Z" style="fill:#263238"></path><path d="M99.65,113.89H95.22a.5.5,0,0,1-.5-.5V109a.51.51,0,0,1,.5-.5h4.43a.5.5,0,0,1,.5.5v4.43A.5.5,0,0,1,99.65,113.89Zm-3.93-1h3.43v-3.43H95.72Z" style="fill:#263238"></path><path d="M106.19,113.89h-4.43a.5.5,0,0,1-.5-.5V109a.51.51,0,0,1,.5-.5h4.43a.5.5,0,0,1,.5.5v4.43A.5.5,0,0,1,106.19,113.89Zm-3.93-1h3.43v-3.43h-3.43Z" style="fill:#263238"></path><path d="M112.73,113.89H108.3a.5.5,0,0,1-.5-.5V109a.51.51,0,0,1,.5-.5h4.43a.5.5,0,0,1,.5.5v4.43A.5.5,0,0,1,112.73,113.89Zm-3.93-1h3.43v-3.43H108.8Z" style="fill:#263238"></path><path d="M119.27,113.89h-4.43a.5.5,0,0,1-.5-.5V109a.51.51,0,0,1,.5-.5h4.43a.5.5,0,0,1,.5.5v4.43A.5.5,0,0,1,119.27,113.89Zm-3.93-1h3.43v-3.43h-3.43Z" style="fill:#263238"></path><path d="M125.81,113.89h-4.43a.5.5,0,0,1-.5-.5V109a.51.51,0,0,1,.5-.5h4.43a.5.5,0,0,1,.5.5v4.43A.5.5,0,0,1,125.81,113.89Zm-3.93-1h3.43v-3.43h-3.43Z" style="fill:#263238"></path><path d="M132.35,113.89h-4.43a.5.5,0,0,1-.5-.5V109a.51.51,0,0,1,.5-.5h4.43a.5.5,0,0,1,.5.5v4.43A.5.5,0,0,1,132.35,113.89Zm-3.93-1h3.43v-3.43h-3.43Z" style="fill:#263238"></path><path d="M93.11,121.2H88.68a.5.5,0,0,1-.5-.5v-4.43a.5.5,0,0,1,.5-.5h4.43a.5.5,0,0,1,.5.5v4.43A.5.5,0,0,1,93.11,121.2Zm-3.93-1h3.43v-3.43H89.18Z" style="fill:#263238"></path><path d="M99.65,121.2H95.22a.5.5,0,0,1-.5-.5v-4.43a.5.5,0,0,1,.5-.5h4.43a.5.5,0,0,1,.5.5v4.43A.5.5,0,0,1,99.65,121.2Zm-3.93-1h3.43v-3.43H95.72Z" style="fill:#263238"></path><path d="M106.19,121.2h-4.43a.5.5,0,0,1-.5-.5v-4.43a.5.5,0,0,1,.5-.5h4.43a.5.5,0,0,1,.5.5v4.43A.5.5,0,0,1,106.19,121.2Zm-3.93-1h3.43v-3.43h-3.43Z" style="fill:#263238"></path><path d="M112.73,121.2H108.3a.5.5,0,0,1-.5-.5v-4.43a.5.5,0,0,1,.5-.5h4.43a.5.5,0,0,1,.5.5v4.43A.5.5,0,0,1,112.73,121.2Zm-3.93-1h3.43v-3.43H108.8Z" style="fill:#263238"></path><path d="M119.27,121.2h-4.43a.5.5,0,0,1-.5-.5v-4.43a.5.5,0,0,1,.5-.5h4.43a.5.5,0,0,1,.5.5v4.43A.5.5,0,0,1,119.27,121.2Zm-3.93-1h3.43v-3.43h-3.43Z" style="fill:#263238"></path><path d="M125.81,121.2h-4.43a.5.5,0,0,1-.5-.5v-4.43a.5.5,0,0,1,.5-.5h4.43a.5.5,0,0,1,.5.5v4.43A.5.5,0,0,1,125.81,121.2Zm-3.93-1h3.43v-3.43h-3.43Z" style="fill:#263238"></path><path d="M132.35,121.2h-4.43a.5.5,0,0,1-.5-.5v-4.43a.5.5,0,0,1,.5-.5h4.43a.5.5,0,0,1,.5.5v4.43A.5.5,0,0,1,132.35,121.2Zm-3.93-1h3.43v-3.43h-3.43Z" style="fill:#263238"></path><path d="M93.11,128.51H88.68a.51.51,0,0,1-.5-.5v-4.43a.5.5,0,0,1,.5-.5h4.43a.5.5,0,0,1,.5.5V128A.5.5,0,0,1,93.11,128.51Zm-3.93-1h3.43v-3.43H89.18Z" style="fill:#263238"></path><path d="M99.65,128.51H95.22a.51.51,0,0,1-.5-.5v-4.43a.5.5,0,0,1,.5-.5h4.43a.5.5,0,0,1,.5.5V128A.5.5,0,0,1,99.65,128.51Zm-3.93-1h3.43v-3.43H95.72Z" style="fill:#263238"></path><path d="M106.19,128.51h-4.43a.51.51,0,0,1-.5-.5v-4.43a.5.5,0,0,1,.5-.5h4.43a.5.5,0,0,1,.5.5V128A.5.5,0,0,1,106.19,128.51Zm-3.93-1h3.43v-3.43h-3.43Z" style="fill:#263238"></path><path d="M112.73,128.51H108.3a.51.51,0,0,1-.5-.5v-4.43a.5.5,0,0,1,.5-.5h4.43a.5.5,0,0,1,.5.5V128A.5.5,0,0,1,112.73,128.51Zm-3.93-1h3.43v-3.43H108.8Z" style="fill:#263238"></path><path d="M119.27,128.51h-4.43a.51.51,0,0,1-.5-.5v-4.43a.5.5,0,0,1,.5-.5h4.43a.5.5,0,0,1,.5.5V128A.5.5,0,0,1,119.27,128.51Zm-3.93-1h3.43v-3.43h-3.43Z" style="fill:#263238"></path><path d="M125.81,128.51h-4.43a.51.51,0,0,1-.5-.5v-4.43a.5.5,0,0,1,.5-.5h4.43a.5.5,0,0,1,.5.5V128A.5.5,0,0,1,125.81,128.51Zm-3.93-1h3.43v-3.43h-3.43Z" style="fill:#263238"></path><path d="M132.35,128.51h-4.43a.51.51,0,0,1-.5-.5v-4.43a.5.5,0,0,1,.5-.5h4.43a.5.5,0,0,1,.5.5V128A.5.5,0,0,1,132.35,128.51Zm-3.93-1h3.43v-3.43h-3.43Z" style="fill:#263238"></path><path d="M93.11,135.81H88.68a.5.5,0,0,1-.5-.5v-4.43a.51.51,0,0,1,.5-.5h4.43a.5.5,0,0,1,.5.5v4.43A.5.5,0,0,1,93.11,135.81Zm-3.93-1h3.43v-3.43H89.18Z" style="fill:#263238"></path><path d="M99.65,135.81H95.22a.5.5,0,0,1-.5-.5v-4.43a.51.51,0,0,1,.5-.5h4.43a.5.5,0,0,1,.5.5v4.43A.5.5,0,0,1,99.65,135.81Zm-3.93-1h3.43v-3.43H95.72Z" style="fill:#263238"></path><path d="M106.19,135.81h-4.43a.5.5,0,0,1-.5-.5v-4.43a.51.51,0,0,1,.5-.5h4.43a.5.5,0,0,1,.5.5v4.43A.5.5,0,0,1,106.19,135.81Zm-3.93-1h3.43v-3.43h-3.43Z" style="fill:#263238"></path><path d="M112.73,135.81H108.3a.5.5,0,0,1-.5-.5v-4.43a.51.51,0,0,1,.5-.5h4.43a.5.5,0,0,1,.5.5v4.43A.5.5,0,0,1,112.73,135.81Zm-3.93-1h3.43v-3.43H108.8Z" style="fill:#263238"></path><path d="M119.27,135.81h-4.43a.5.5,0,0,1-.5-.5v-4.43a.51.51,0,0,1,.5-.5h4.43a.5.5,0,0,1,.5.5v4.43A.5.5,0,0,1,119.27,135.81Zm-3.93-1h3.43v-3.43h-3.43Z" style="fill:#263238"></path><path d="M125.81,135.81h-4.43a.5.5,0,0,1-.5-.5v-4.43a.51.51,0,0,1,.5-.5h4.43a.5.5,0,0,1,.5.5v4.43A.5.5,0,0,1,125.81,135.81Zm-3.93-1h3.43v-3.43h-3.43Z" style="fill:#263238"></path><path d="M132.35,135.81h-4.43a.5.5,0,0,1-.5-.5v-4.43a.51.51,0,0,1,.5-.5h4.43a.5.5,0,0,1,.5.5v4.43A.5.5,0,0,1,132.35,135.81Zm-3.93-1h3.43v-3.43h-3.43Z" style="fill:#263238"></path><path d="M131.7,101.91h-43a.5.5,0,0,1-.5-.5.51.51,0,0,1,.5-.5h43a.51.51,0,0,1,.5.5A.5.5,0,0,1,131.7,101.91Z" style="fill:#263238"></path><path d="M418.59,255.15H385.82a.51.51,0,0,1-.5-.5V226.09a.5.5,0,0,1,.5-.5h32.77a.5.5,0,0,1,.5.5v28.56A.51.51,0,0,1,418.59,255.15Zm-32.27-1h31.77V226.59H386.32Z" style="fill:#263238"></path><path d="M391.84,238h-2.68a.5.5,0,0,1-.5-.5v-2.69a.5.5,0,0,1,.5-.5h2.68a.5.5,0,0,1,.5.5v2.69A.5.5,0,0,1,391.84,238Zm-2.18-1h1.68v-1.69h-1.68Z" style="fill:#263238"></path><path d="M395.81,238h-2.69a.5.5,0,0,1-.5-.5v-2.69a.51.51,0,0,1,.5-.5h2.69a.5.5,0,0,1,.5.5v2.69A.5.5,0,0,1,395.81,238Zm-2.19-1h1.69v-1.69h-1.69Z" style="fill:#263238"></path><path d="M399.77,238h-2.68a.5.5,0,0,1-.5-.5v-2.69a.5.5,0,0,1,.5-.5h2.68a.5.5,0,0,1,.5.5v2.69A.5.5,0,0,1,399.77,238Zm-2.18-1h1.68v-1.69h-1.68Z" style="fill:#263238"></path><path d="M403.74,238h-2.69a.5.5,0,0,1-.5-.5v-2.69a.51.51,0,0,1,.5-.5h2.69a.5.5,0,0,1,.5.5v2.69A.5.5,0,0,1,403.74,238Zm-2.19-1h1.69v-1.69h-1.69Z" style="fill:#263238"></path><path d="M407.7,238H405a.5.5,0,0,1-.5-.5v-2.69a.5.5,0,0,1,.5-.5h2.68a.5.5,0,0,1,.5.5v2.69A.5.5,0,0,1,407.7,238Zm-2.18-1h1.68v-1.69h-1.68Z" style="fill:#263238"></path><path d="M411.67,238H409a.5.5,0,0,1-.5-.5v-2.69a.51.51,0,0,1,.5-.5h2.69a.5.5,0,0,1,.5.5v2.69A.5.5,0,0,1,411.67,238Zm-2.19-1h1.69v-1.69h-1.69Z" style="fill:#263238"></path><path d="M415.63,238H413a.5.5,0,0,1-.5-.5v-2.69a.5.5,0,0,1,.5-.5h2.68a.5.5,0,0,1,.5.5v2.69A.5.5,0,0,1,415.63,238Zm-2.18-1h1.68v-1.69h-1.68Z" style="fill:#263238"></path><path d="M391.84,242.43h-2.68a.5.5,0,0,1-.5-.5v-2.69a.5.5,0,0,1,.5-.5h2.68a.5.5,0,0,1,.5.5v2.69A.5.5,0,0,1,391.84,242.43Zm-2.18-1h1.68v-1.69h-1.68Z" style="fill:#263238"></path><path d="M395.81,242.43h-2.69a.5.5,0,0,1-.5-.5v-2.69a.51.51,0,0,1,.5-.5h2.69a.5.5,0,0,1,.5.5v2.69A.5.5,0,0,1,395.81,242.43Zm-2.19-1h1.69v-1.69h-1.69Z" style="fill:#263238"></path><path d="M399.77,242.43h-2.68a.5.5,0,0,1-.5-.5v-2.69a.5.5,0,0,1,.5-.5h2.68a.5.5,0,0,1,.5.5v2.69A.5.5,0,0,1,399.77,242.43Zm-2.18-1h1.68v-1.69h-1.68Z" style="fill:#263238"></path><path d="M403.74,242.43h-2.69a.5.5,0,0,1-.5-.5v-2.69a.51.51,0,0,1,.5-.5h2.69a.5.5,0,0,1,.5.5v2.69A.5.5,0,0,1,403.74,242.43Zm-2.19-1h1.69v-1.69h-1.69Z" style="fill:#263238"></path><path d="M407.7,242.43H405a.5.5,0,0,1-.5-.5v-2.69a.5.5,0,0,1,.5-.5h2.68a.5.5,0,0,1,.5.5v2.69A.5.5,0,0,1,407.7,242.43Zm-2.18-1h1.68v-1.69h-1.68Z" style="fill:#263238"></path><path d="M411.67,242.43H409a.5.5,0,0,1-.5-.5v-2.69a.51.51,0,0,1,.5-.5h2.69a.5.5,0,0,1,.5.5v2.69A.5.5,0,0,1,411.67,242.43Zm-2.19-1h1.69v-1.69h-1.69Z" style="fill:#263238"></path><path d="M415.63,242.43H413a.5.5,0,0,1-.5-.5v-2.69a.5.5,0,0,1,.5-.5h2.68a.5.5,0,0,1,.5.5v2.69A.5.5,0,0,1,415.63,242.43Zm-2.18-1h1.68v-1.69h-1.68Z" style="fill:#263238"></path><path d="M391.84,246.86h-2.68a.5.5,0,0,1-.5-.5v-2.69a.5.5,0,0,1,.5-.5h2.68a.5.5,0,0,1,.5.5v2.69A.5.5,0,0,1,391.84,246.86Zm-2.18-1h1.68v-1.69h-1.68Z" style="fill:#263238"></path><path d="M395.81,246.86h-2.69a.5.5,0,0,1-.5-.5v-2.69a.51.51,0,0,1,.5-.5h2.69a.5.5,0,0,1,.5.5v2.69A.5.5,0,0,1,395.81,246.86Zm-2.19-1h1.69v-1.69h-1.69Z" style="fill:#263238"></path><path d="M399.77,246.86h-2.68a.5.5,0,0,1-.5-.5v-2.69a.5.5,0,0,1,.5-.5h2.68a.5.5,0,0,1,.5.5v2.69A.5.5,0,0,1,399.77,246.86Zm-2.18-1h1.68v-1.69h-1.68Z" style="fill:#263238"></path><path d="M403.74,246.86h-2.69a.5.5,0,0,1-.5-.5v-2.69a.51.51,0,0,1,.5-.5h2.69a.5.5,0,0,1,.5.5v2.69A.5.5,0,0,1,403.74,246.86Zm-2.19-1h1.69v-1.69h-1.69Z" style="fill:#263238"></path><path d="M407.7,246.86H405a.5.5,0,0,1-.5-.5v-2.69a.5.5,0,0,1,.5-.5h2.68a.5.5,0,0,1,.5.5v2.69A.5.5,0,0,1,407.7,246.86Zm-2.18-1h1.68v-1.69h-1.68Z" style="fill:#263238"></path><path d="M411.67,246.86H409a.5.5,0,0,1-.5-.5v-2.69a.51.51,0,0,1,.5-.5h2.69a.5.5,0,0,1,.5.5v2.69A.5.5,0,0,1,411.67,246.86Zm-2.19-1h1.69v-1.69h-1.69Z" style="fill:#263238"></path><path d="M415.63,246.86H413a.5.5,0,0,1-.5-.5v-2.69a.5.5,0,0,1,.5-.5h2.68a.5.5,0,0,1,.5.5v2.69A.5.5,0,0,1,415.63,246.86Zm-2.18-1h1.68v-1.69h-1.68Z" style="fill:#263238"></path><path d="M391.84,251.29h-2.68a.5.5,0,0,1-.5-.5V248.1a.5.5,0,0,1,.5-.5h2.68a.5.5,0,0,1,.5.5v2.69A.5.5,0,0,1,391.84,251.29Zm-2.18-1h1.68V248.6h-1.68Z" style="fill:#263238"></path><path d="M395.81,251.29h-2.69a.5.5,0,0,1-.5-.5V248.1a.51.51,0,0,1,.5-.5h2.69a.5.5,0,0,1,.5.5v2.69A.5.5,0,0,1,395.81,251.29Zm-2.19-1h1.69V248.6h-1.69Z" style="fill:#263238"></path><path d="M399.77,251.29h-2.68a.5.5,0,0,1-.5-.5V248.1a.5.5,0,0,1,.5-.5h2.68a.5.5,0,0,1,.5.5v2.69A.5.5,0,0,1,399.77,251.29Zm-2.18-1h1.68V248.6h-1.68Z" style="fill:#263238"></path><path d="M403.74,251.29h-2.69a.5.5,0,0,1-.5-.5V248.1a.51.51,0,0,1,.5-.5h2.69a.5.5,0,0,1,.5.5v2.69A.5.5,0,0,1,403.74,251.29Zm-2.19-1h1.69V248.6h-1.69Z" style="fill:#263238"></path><path d="M407.7,251.29H405a.5.5,0,0,1-.5-.5V248.1a.5.5,0,0,1,.5-.5h2.68a.5.5,0,0,1,.5.5v2.69A.5.5,0,0,1,407.7,251.29Zm-2.18-1h1.68V248.6h-1.68Z" style="fill:#263238"></path><path d="M411.67,251.29H409a.5.5,0,0,1-.5-.5V248.1a.51.51,0,0,1,.5-.5h2.69a.5.5,0,0,1,.5.5v2.69A.5.5,0,0,1,411.67,251.29Zm-2.19-1h1.69V248.6h-1.69Z" style="fill:#263238"></path><path d="M415.63,251.29H413a.5.5,0,0,1-.5-.5V248.1a.5.5,0,0,1,.5-.5h2.68a.5.5,0,0,1,.5.5v2.69A.5.5,0,0,1,415.63,251.29Zm-2.18-1h1.68V248.6h-1.68Z" style="fill:#263238"></path><path d="M415.24,230.73H389.16a.5.5,0,0,1-.5-.5.5.5,0,0,1,.5-.5h26.08a.51.51,0,0,1,.5.5A.5.5,0,0,1,415.24,230.73Z" style="fill:#263238"></path></g><g id="freepik--Symbols--inject-7"><path d="M79.84,236.65a27.56,27.56,0,1,1,27.56-27.56A27.58,27.58,0,0,1,79.84,236.65Zm0-54.12a26.56,26.56,0,1,0,26.56,26.56A26.58,26.58,0,0,0,79.84,182.53Z" style="fill:#263238"></path><path d="M79.84,233a23.92,23.92,0,1,1,23.92-23.92A23.95,23.95,0,0,1,79.84,233Zm0-46.84a22.92,22.92,0,1,0,22.92,22.92A22.95,22.95,0,0,0,79.84,186.17Z" style="fill:#263238"></path><path d="M81.79,228.08H79.48v-2.67a7.49,7.49,0,0,1-5.79-2.76,11.81,11.81,0,0,1-2.22-6.74l0-.41,4.83-1.3,0,.61a15.8,15.8,0,0,0,.51,3.1,5.25,5.25,0,0,0,1.2,2.31,2.91,2.91,0,0,0,2.22.82,2.83,2.83,0,0,0,2.19-.78,3.41,3.41,0,0,0,.73-2.38,5.09,5.09,0,0,0-.86-3.1A17.52,17.52,0,0,0,80,212.25l-5.23-4.61a12,12,0,0,1-1.76-2,8,8,0,0,1-1.07-2.37,11.44,11.44,0,0,1-.34-2.88,7.52,7.52,0,0,1,2-5.57,7.72,7.72,0,0,1,5-2.1v-2.6H80.9v2.62a8.1,8.1,0,0,1,2.54.68,6.28,6.28,0,0,1,2.22,1.69,8.26,8.26,0,0,1,1.39,2.6,14.74,14.74,0,0,1,.66,3.49l0,.41-4.68,1.27,0-.6a14.55,14.55,0,0,0-.45-2.78,3.78,3.78,0,0,0-1.07-1.9,2.73,2.73,0,0,0-2.1-.56,3.64,3.64,0,0,0-2.22.8,2.74,2.74,0,0,0-.74,2.13,4.46,4.46,0,0,0,.42,2.09,7,7,0,0,0,1.46,1.78l5.26,4.6a20.56,20.56,0,0,1,2.24,2.4,12.26,12.26,0,0,1,1.72,3,9.87,9.87,0,0,1,.67,3.73,8.69,8.69,0,0,1-.86,3.94,6.71,6.71,0,0,1-2.43,2.71,7.83,7.83,0,0,1-3.13,1.14Zm-1.31-1h.31v-2.64l.45-.05a7.08,7.08,0,0,0,3.15-1A5.89,5.89,0,0,0,86.46,221a7.7,7.7,0,0,0,.75-3.49,9.14,9.14,0,0,0-.59-3.36A11.28,11.28,0,0,0,85,211.44a19.14,19.14,0,0,0-2.11-2.27l-5.27-4.61A7.88,7.88,0,0,1,76,202.51a5.4,5.4,0,0,1-.54-2.56,3.7,3.7,0,0,1,1.07-2.88,4.57,4.57,0,0,1,2.82-1,3.66,3.66,0,0,1,2.86.82,4.83,4.83,0,0,1,1.35,2.38,16.38,16.38,0,0,1,.42,2.35l2.72-.73A12.93,12.93,0,0,0,86.1,198a7,7,0,0,0-1.22-2.28A5.16,5.16,0,0,0,83,194.3a7.94,7.94,0,0,0-2.65-.63l-.47,0V191.1h-.34v2.56l-.49,0a6.92,6.92,0,0,0-4.78,1.83,6.58,6.58,0,0,0-1.74,4.86,9.91,9.91,0,0,0,.31,2.62,7.06,7.06,0,0,0,.93,2.07,10.34,10.34,0,0,0,1.6,1.83l5.23,4.61a19.55,19.55,0,0,1,2.49,2.68,6,6,0,0,1,1.06,3.7,4.34,4.34,0,0,1-1,3.06,3.78,3.78,0,0,1-2.92,1.1,3.84,3.84,0,0,1-2.94-1.14,6.11,6.11,0,0,1-1.45-2.74,16.68,16.68,0,0,1-.48-2.68l-2.88.78a10.51,10.51,0,0,0,2,5.78c1.19,1.56,3,2.34,5.5,2.39h.49Z" style="fill:#263238"></path><path d="M399,151.14a16.5,16.5,0,1,1,16.5-16.5A16.52,16.52,0,0,1,399,151.14Zm0-32a15.5,15.5,0,1,0,15.5,15.5A15.51,15.51,0,0,0,399,119.14Z" style="fill:#263238"></path><path d="M399,149a14.35,14.35,0,1,1,14.35-14.35A14.37,14.37,0,0,1,399,149Zm0-27.7a13.35,13.35,0,1,0,13.35,13.35A13.37,13.37,0,0,0,399,121.29Z" style="fill:#263238"></path><path d="M400.35,146.07h-1.77v-1.59a4.55,4.55,0,0,1-3.38-1.7,7.12,7.12,0,0,1-1.36-4.1v-.4l3.25-.88,0,.61a9.55,9.55,0,0,0,.29,1.79,2.9,2.9,0,0,0,.67,1.28,1.84,1.84,0,0,0,2.3,0,1.82,1.82,0,0,0,.38-1.27,2.79,2.79,0,0,0-.47-1.72,9.51,9.51,0,0,0-1.36-1.46l-3.1-2.73a7.09,7.09,0,0,1-1.07-1.23,4.71,4.71,0,0,1-.66-1.46,6.8,6.8,0,0,1-.21-1.76,4.64,4.64,0,0,1,1.26-3.44,4.74,4.74,0,0,1,2.88-1.28V123.2h1.8v1.58a4.83,4.83,0,0,1,1.38.39,3.81,3.81,0,0,1,1.38,1.06,4.92,4.92,0,0,1,.87,1.6,9.54,9.54,0,0,1,.4,2.11l0,.42-3.17.86-.05-.61a9.57,9.57,0,0,0-.25-1.6,2.16,2.16,0,0,0-.58-1,1.37,1.37,0,0,0-1.09-.27,1.86,1.86,0,0,0-1.19.42,1.39,1.39,0,0,0-.37,1.1,2.31,2.31,0,0,0,.23,1.14,3.94,3.94,0,0,0,.81,1l3.11,2.72a12.35,12.35,0,0,1,1.35,1.44,7.64,7.64,0,0,1,1.05,1.82,6.17,6.17,0,0,1,.41,2.28,5.4,5.4,0,0,1-.53,2.43,4.16,4.16,0,0,1-1.51,1.68,4.79,4.79,0,0,1-1.76.68Zm-5.48-7a6,6,0,0,0,1.12,3.14,3.7,3.7,0,0,0,3.1,1.33h.43l.28,0a3.83,3.83,0,0,0,1.77-.58,3.18,3.18,0,0,0,1.16-1.3,4.31,4.31,0,0,0,.42-2,5,5,0,0,0-.34-1.9,6.29,6.29,0,0,0-.9-1.58,11.87,11.87,0,0,0-1.23-1.31l-3.11-2.73a4.89,4.89,0,0,1-1-1.27,3.34,3.34,0,0,1-.34-1.61,2.35,2.35,0,0,1,.7-1.85,2.92,2.92,0,0,1,1.79-.67,2.31,2.31,0,0,1,1.84.54,3.07,3.07,0,0,1,.86,1.5,8.65,8.65,0,0,1,.23,1.19l1.21-.33a8.13,8.13,0,0,0-.31-1.46,3.81,3.81,0,0,0-.69-1.28,2.79,2.79,0,0,0-1-.79,4.35,4.35,0,0,0-1.5-.35l-.26,0h0l-.48,0a3.8,3.8,0,0,0-2.69,1,3.66,3.66,0,0,0-1,2.73,5.66,5.66,0,0,0,.18,1.5,3.93,3.93,0,0,0,.52,1.16,6.21,6.21,0,0,0,.91,1.05l3.09,2.72a10.55,10.55,0,0,1,1.5,1.62,3.72,3.72,0,0,1,.67,2.31,2.75,2.75,0,0,1-.64,1.94,2.43,2.43,0,0,1-1.88.72,2.48,2.48,0,0,1-1.89-.74,3.87,3.87,0,0,1-.91-1.7,12.45,12.45,0,0,1-.26-1.38Z" style="fill:#263238"></path></g><g id="freepik--Door--inject-7"><rect x="400.34" y="273.38" width="47.14" height="107.98" style="fill:#fff"></rect><path d="M447.48,381.86H400.34a.5.5,0,0,1-.5-.5v-108a.5.5,0,0,1,.5-.5h47.14a.5.5,0,0,1,.5.5v108A.5.5,0,0,1,447.48,381.86Zm-46.64-1H447v-107H400.84Z" style="fill:#263238"></path><rect x="404.86" y="278.58" width="37.4" height="40.86" style="fill:#fff"></rect><path d="M442.27,320H404.86a.51.51,0,0,1-.5-.5V278.58a.51.51,0,0,1,.5-.5h37.41a.51.51,0,0,1,.5.5v40.87A.51.51,0,0,1,442.27,320Zm-36.91-1h36.41V279.08H405.36Z" style="fill:#263238"></path><rect x="404.86" y="338.91" width="37.4" height="38.31" style="fill:#fff"></rect><path d="M442.27,377.72H404.86a.5.5,0,0,1-.5-.5V338.91a.51.51,0,0,1,.5-.5h37.41a.51.51,0,0,1,.5.5v38.31A.5.5,0,0,1,442.27,377.72Zm-36.91-1h36.41V339.41H405.36Z" style="fill:#263238"></path><path d="M443.73,329A2.93,2.93,0,1,0,440.8,332,2.93,2.93,0,0,0,443.73,329Z" style="fill:#fff"></path><path d="M440.8,332.45a3.44,3.44,0,1,1,3.43-3.44A3.44,3.44,0,0,1,440.8,332.45Zm0-5.87a2.44,2.44,0,1,0,2.43,2.43A2.43,2.43,0,0,0,440.8,326.58Z" style="fill:#263238"></path></g><g id="freepik--file-cabinet--inject-7"><rect x="347.46" y="300.51" width="37.67" height="80.65" style="fill:#fff"></rect><path d="M385.12,381.66H347.46a.5.5,0,0,1-.5-.5V300.51a.5.5,0,0,1,.5-.5h37.66a.5.5,0,0,1,.5.5v80.65A.5.5,0,0,1,385.12,381.66Zm-37.16-1h36.66V301H348Z" style="fill:#263238"></path><rect x="374.26" y="300.51" width="10.86" height="80.65" style="fill:#263238"></rect><path d="M385.12,381.66H374.26a.51.51,0,0,1-.5-.5V300.51a.5.5,0,0,1,.5-.5h10.86a.5.5,0,0,1,.5.5v80.65A.5.5,0,0,1,385.12,381.66Zm-10.36-1h9.86V301h-9.86Z" style="fill:#263238"></path><path d="M372.57,323.05H348.94a.5.5,0,0,1-.5-.5V303.91a.51.51,0,0,1,.5-.5h23.63a.51.51,0,0,1,.5.5v18.64A.5.5,0,0,1,372.57,323.05Zm-23.13-1h22.63V304.41H349.44Z" style="fill:#263238"></path><rect x="358.52" y="311.64" width="4.04" height="3.41" style="fill:#263238"></rect><path d="M362.56,315.55h-4a.5.5,0,0,1-.5-.5v-3.41a.5.5,0,0,1,.5-.5h4a.5.5,0,0,1,.5.5v3.41A.5.5,0,0,1,362.56,315.55Zm-3.54-1h3v-2.41h-3Z" style="fill:#263238"></path><path d="M372.57,345.33H348.94a.5.5,0,0,1-.5-.5V326.19a.51.51,0,0,1,.5-.5h23.63a.51.51,0,0,1,.5.5v18.64A.5.5,0,0,1,372.57,345.33Zm-23.13-1h22.63V326.69H349.44Z" style="fill:#263238"></path><rect x="358.52" y="333.92" width="4.04" height="3.41" style="fill:#263238"></rect><path d="M362.56,337.83h-4a.5.5,0,0,1-.5-.5v-3.41a.5.5,0,0,1,.5-.5h4a.5.5,0,0,1,.5.5v3.41A.5.5,0,0,1,362.56,337.83Zm-3.54-1h3v-2.41h-3Z" style="fill:#263238"></path><rect x="348.94" y="348.47" width="23.62" height="18.64" style="fill:#fff"></rect><path d="M372.57,367.61H348.94a.5.5,0,0,1-.5-.5V348.47a.51.51,0,0,1,.5-.5h23.63a.51.51,0,0,1,.5.5v18.64A.5.5,0,0,1,372.57,367.61Zm-23.13-1h22.63V349H349.44Z" style="fill:#263238"></path><rect x="358.52" y="356.2" width="4.04" height="3.41" style="fill:#263238"></rect><path d="M362.56,360.11h-4a.5.5,0,0,1-.5-.5V356.2a.5.5,0,0,1,.5-.5h4a.5.5,0,0,1,.5.5v3.41A.5.5,0,0,1,362.56,360.11Zm-3.54-1h3V356.7h-3Z" style="fill:#263238"></path></g><g id="freepik--Board--inject-7"><rect x="243.52" y="273.79" width="62.43" height="43.3" style="fill:#fff"></rect><path d="M306,317.59H243.52a.5.5,0,0,1-.5-.5v-43.3a.51.51,0,0,1,.5-.5H306a.5.5,0,0,1,.5.5v43.3A.5.5,0,0,1,306,317.59Zm-61.93-1h61.43v-42.3H244Z" style="fill:#263238"></path><rect x="246.47" y="275.83" width="56.54" height="39.21" style="fill:#bfbfbf"></rect><path d="M303,315.55H246.47a.5.5,0,0,1-.5-.5V275.83a.5.5,0,0,1,.5-.5H303a.51.51,0,0,1,.5.5v39.22A.51.51,0,0,1,303,315.55Zm-56-1h55.54V276.33H247Z" style="fill:#263238"></path><rect x="251.31" y="282.21" width="8.06" height="10.16" style="fill:#fff"></rect><path d="M259.37,292.87h-8.06a.5.5,0,0,1-.5-.5V282.21a.5.5,0,0,1,.5-.5h8.06a.5.5,0,0,1,.5.5v10.16A.5.5,0,0,1,259.37,292.87Zm-7.56-1h7.06v-9.16h-7.06Z" style="fill:#263238"></path><rect x="270.58" y="287.47" width="9.11" height="14.37" style="fill:#92E3A9"></rect><path d="M279.69,302.33h-9.11a.5.5,0,0,1-.5-.5V287.47a.5.5,0,0,1,.5-.5h9.11a.5.5,0,0,1,.5.5v14.36A.5.5,0,0,1,279.69,302.33Zm-8.61-1h8.11V288h-8.11Z" style="fill:#263238"></path><rect x="251.66" y="301.48" width="4.56" height="4.56" style="fill:#92E3A9"></rect><path d="M256.21,306.54h-4.55a.5.5,0,0,1-.5-.5v-4.56a.5.5,0,0,1,.5-.5h4.55a.5.5,0,0,1,.5.5V306A.5.5,0,0,1,256.21,306.54Zm-4-1h3.55V302h-3.55Z" style="fill:#263238"></path><rect x="287.75" y="288.52" width="3.85" height="5.26" style="fill:#fff"></rect><path d="M291.6,294.27h-3.85a.5.5,0,0,1-.5-.5v-5.25a.5.5,0,0,1,.5-.5h3.85a.5.5,0,0,1,.5.5v5.25A.5.5,0,0,1,291.6,294.27Zm-3.35-1h2.85V289h-2.85Z" style="fill:#263238"></path><rect x="275.48" y="279.06" width="3.15" height="2.8" style="fill:#fff"></rect><path d="M278.64,282.36h-3.16a.5.5,0,0,1-.5-.5v-2.8a.5.5,0,0,1,.5-.5h3.16a.5.5,0,0,1,.5.5v2.8A.5.5,0,0,1,278.64,282.36Zm-2.66-1h2.16v-1.8H276Z" style="fill:#263238"></path><rect x="282.84" y="299.38" width="5.96" height="8.76" style="fill:#fff"></rect><path d="M288.8,308.64h-6a.5.5,0,0,1-.5-.5v-8.76a.5.5,0,0,1,.5-.5h6a.5.5,0,0,1,.5.5v8.76A.5.5,0,0,1,288.8,308.64Zm-5.46-1h5v-7.76h-5Z" style="fill:#263238"></path><rect x="294.05" y="294.47" width="4.56" height="7.01" style="fill:#92E3A9"></rect><path d="M298.61,302h-4.56a.5.5,0,0,1-.5-.5v-7a.51.51,0,0,1,.5-.5h4.56a.5.5,0,0,1,.5.5v7A.5.5,0,0,1,298.61,302Zm-4.06-1h3.56v-6h-3.56Z" style="fill:#263238"></path></g><g id="freepik--table-2--inject-7"><rect x="266.12" y="339.67" width="18.68" height="41.49" style="fill:#263238"></rect><path d="M284.8,381.66H266.12a.5.5,0,0,1-.5-.5V339.67a.5.5,0,0,1,.5-.5H284.8a.5.5,0,0,1,.5.5v41.49A.51.51,0,0,1,284.8,381.66Zm-18.18-1H284.3V340.17H266.62Z" style="fill:#263238"></path><path d="M343.22,338.42H261.49a.5.5,0,0,1-.5-.5v-2.55a.5.5,0,0,1,.5-.5h81.73a.5.5,0,0,1,.5.5v2.55A.5.5,0,0,1,343.22,338.42Zm-81.23-1h80.73v-1.55H262Z" style="fill:#263238"></path><path d="M343.22,338.42H324.28a.51.51,0,0,1-.5-.5v-2.55a.5.5,0,0,1,.5-.5h18.94a.5.5,0,0,1,.5.5v2.55A.5.5,0,0,1,343.22,338.42Zm-18.44-1h17.94v-1.55H324.78Z" style="fill:#263238"></path><polygon points="263.64 337.88 263.64 381.16 266.81 381.16 266.81 343.06 301.38 343.06 301.38 381.16 341.98 381.16 341.98 337.88 263.64 337.88" style="fill:#fff"></polygon><path d="M342,381.66H301.37a.51.51,0,0,1-.5-.5v-37.6H267.32v37.6a.51.51,0,0,1-.5.5h-3.18a.5.5,0,0,1-.5-.5V337.88a.5.5,0,0,1,.5-.5H342a.51.51,0,0,1,.5.5v43.28A.51.51,0,0,1,342,381.66Zm-40.11-1h39.61V338.38H264.14v42.28h2.18v-37.6a.5.5,0,0,1,.5-.5h34.55a.5.5,0,0,1,.5.5Z" style="fill:#263238"></path><rect x="323.3" y="337.88" width="18.68" height="43.28" style="fill:#263238"></rect><path d="M342,381.66H323.3a.5.5,0,0,1-.5-.5V337.88a.5.5,0,0,1,.5-.5H342a.51.51,0,0,1,.5.5v43.28A.51.51,0,0,1,342,381.66Zm-18.18-1h17.68V338.38H323.8Z" style="fill:#263238"></path><rect x="303.55" y="343.4" width="17.21" height="8.69" style="fill:#fff"></rect><path d="M320.76,352.58H303.55a.5.5,0,0,1-.5-.5V343.4a.5.5,0,0,1,.5-.5h17.21a.5.5,0,0,1,.5.5v8.68A.5.5,0,0,1,320.76,352.58Zm-16.71-1h16.21V343.9H304.05Z" style="fill:#263238"></path><path d="M314.07,348.07h-3.84a.5.5,0,0,1-.5-.5.5.5,0,0,1,.5-.5h3.84a.5.5,0,0,1,.5.5A.5.5,0,0,1,314.07,348.07Z" style="fill:#263238"></path><rect x="303.55" y="354.59" width="17.21" height="8.69" style="fill:#fff"></rect><path d="M320.76,363.78H303.55a.5.5,0,0,1-.5-.5v-8.69a.5.5,0,0,1,.5-.5h17.21a.51.51,0,0,1,.5.5v8.69A.5.5,0,0,1,320.76,363.78Zm-16.71-1h16.21v-7.69H304.05Z" style="fill:#263238"></path><path d="M314.07,359.6h-3.84a.5.5,0,0,1-.5-.5.5.5,0,0,1,.5-.5h3.84a.5.5,0,0,1,.5.5A.5.5,0,0,1,314.07,359.6Z" style="fill:#263238"></path><rect x="303.55" y="365.79" width="17.21" height="8.69" style="fill:#fff"></rect><path d="M320.76,375H303.55a.5.5,0,0,1-.5-.5v-8.68a.5.5,0,0,1,.5-.5h17.21a.5.5,0,0,1,.5.5v8.68A.5.5,0,0,1,320.76,375Zm-16.71-1h16.21v-7.68H304.05Z" style="fill:#263238"></path><path d="M314.07,371h-3.84a.5.5,0,0,1-.5-.5.5.5,0,0,1,.5-.5h3.84a.5.5,0,0,1,.5.5A.5.5,0,0,1,314.07,371Z" style="fill:#263238"></path></g><g id="freepik--chair-2--inject-7"><rect x="242.8" y="353.08" width="2.24" height="17.15" style="fill:#263238"></rect><path d="M245,370.73H242.8a.5.5,0,0,1-.5-.5V353.08a.5.5,0,0,1,.5-.5H245a.5.5,0,0,1,.5.5v17.15A.5.5,0,0,1,245,370.73Zm-1.74-1h1.24V353.58H243.3Z" style="fill:#263238"></path><circle cx="229.45" cy="378.87" r="1.79" style="fill:#263238"></circle><path d="M229.45,381.16a2.3,2.3,0,1,1,2.29-2.29A2.3,2.3,0,0,1,229.45,381.16Zm0-3.59a1.3,1.3,0,1,0,1.29,1.3A1.3,1.3,0,0,0,229.45,377.57Z" style="fill:#263238"></path><circle cx="258.29" cy="378.87" r="1.79" style="fill:#263238"></circle><path d="M258.29,381.16a2.3,2.3,0,1,1,2.29-2.29A2.3,2.3,0,0,1,258.29,381.16Zm0-3.59a1.3,1.3,0,1,0,1.29,1.3A1.3,1.3,0,0,0,258.29,377.57Z" style="fill:#263238"></path><polygon points="244.8 370.23 243.8 370.38 242.8 370.23 226.93 376.89 226.93 378.22 229.59 378.22 230.19 376.89 243.8 373.34 257.42 376.89 258.01 378.22 260.67 378.22 260.67 376.89 244.8 370.23" style="fill:#263238"></polygon><path d="M260.67,378.72H258a.5.5,0,0,1-.46-.29l-.49-1.12-13.26-3.45-13.26,3.45-.49,1.12a.5.5,0,0,1-.46.29h-2.66a.5.5,0,0,1-.5-.5v-1.33a.5.5,0,0,1,.31-.46l15.87-6.66a.46.46,0,0,1,.26,0l.93.13.93-.13a.46.46,0,0,1,.26,0l15.87,6.66a.5.5,0,0,1,.31.46v1.33A.5.5,0,0,1,260.67,378.72Zm-2.34-1h1.84v-.5l-15.43-6.47-.87.13h-.14l-.87-.13-15.43,6.47v.5h1.84l.46-1a.49.49,0,0,1,.33-.28l13.61-3.55a.39.39,0,0,1,.26,0l13.61,3.55a.49.49,0,0,1,.33.28Z" style="fill:#263238"></path><rect x="242.8" y="370.23" width="2.29" height="8.6" style="fill:#263238"></rect><path d="M245.09,379.33H242.8a.5.5,0,0,1-.5-.5v-8.6a.5.5,0,0,1,.5-.5h2.29a.5.5,0,0,1,.5.5v8.6A.5.5,0,0,1,245.09,379.33Zm-1.79-1h1.29v-7.6H243.3Z" style="fill:#263238"></path><rect x="242.82" y="378.31" width="2.1" height="2.85" style="fill:#263238"></rect><path d="M244.92,381.66h-2.1a.5.5,0,0,1-.5-.5v-2.85a.5.5,0,0,1,.5-.5h2.1a.5.5,0,0,1,.5.5v2.85A.5.5,0,0,1,244.92,381.66Zm-1.6-1h1.1v-1.85h-1.1Z" style="fill:#263238"></path><path d="M238.32,311.82h0a9.71,9.71,0,0,1,9.71,9.71v28.57a0,0,0,0,1,0,0H228.61a0,0,0,0,1,0,0V321.53A9.71,9.71,0,0,1,238.32,311.82Z" style="fill:#bfbfbf"></path><path d="M248,350.59H228.61a.5.5,0,0,1-.5-.5V321.53a10.21,10.21,0,0,1,20.42,0v28.56A.5.5,0,0,1,248,350.59Zm-18.92-1h18.42V321.53a9.21,9.21,0,0,0-18.42,0Z" style="fill:#263238"></path><path d="M251.39,350.09H232V321.53a9.71,9.71,0,0,1,9.71-9.71h0a9.71,9.71,0,0,1,9.71,9.71Z" style="fill:#bfbfbf"></path><path d="M251.39,350.59H232a.5.5,0,0,1-.5-.5V321.53a10.21,10.21,0,1,1,20.42,0v28.56A.5.5,0,0,1,251.39,350.59Zm-18.92-1h18.42V321.53a9.21,9.21,0,1,0-18.42,0Z" style="fill:#263238"></path><rect x="228.61" y="345.8" width="33.42" height="4.29" style="fill:#bfbfbf"></rect><path d="M262,350.59H228.61a.5.5,0,0,1-.5-.5V345.8a.5.5,0,0,1,.5-.5H262a.5.5,0,0,1,.5.5v4.29A.5.5,0,0,1,262,350.59Zm-32.92-1h32.42V346.3H229.11Z" style="fill:#263238"></path><rect x="245.04" y="345.8" width="16.99" height="4.29" style="fill:#bfbfbf"></rect><path d="M262,350.59H245a.5.5,0,0,1-.5-.5V345.8a.5.5,0,0,1,.5-.5h17a.5.5,0,0,1,.5.5v4.29A.5.5,0,0,1,262,350.59Zm-16.49-1h16V346.3h-16Z" style="fill:#263238"></path><rect x="238.32" y="350.28" width="11.95" height="2.61" style="fill:#263238"></rect><path d="M250.27,353.39h-12a.5.5,0,0,1-.5-.5v-2.61a.5.5,0,0,1,.5-.5h12a.5.5,0,0,1,.5.5v2.61A.5.5,0,0,1,250.27,353.39Zm-11.45-1h11v-1.61h-11Z" style="fill:#263238"></path></g><g id="freepik--Plant--inject-7"><rect x="186.15" y="362.06" width="12.6" height="19.1" style="fill:#263238"></rect><path d="M198.75,381.66h-12.6a.5.5,0,0,1-.5-.5v-19.1a.5.5,0,0,1,.5-.5h12.6a.5.5,0,0,1,.5.5v19.1A.5.5,0,0,1,198.75,381.66Zm-12.1-1h11.6v-18.1h-11.6Z" style="fill:#263238"></path><path d="M192.51,338.06s-3.32-9.72-2.57-12.5a2.75,2.75,0,0,1,5.24-.22C195.93,327.69,192.51,338.06,192.51,338.06Z" style="fill:#92E3A9"></path><path d="M192.51,338.56a.5.5,0,0,1-.48-.33c-.13-.41-3.35-9.91-2.57-12.8a3.12,3.12,0,0,1,3-2.4,3.25,3.25,0,0,1,3.18,2.16c.77,2.44-2.32,11.95-2.68,13a.51.51,0,0,1-.47.34Zm.05-14.53h-.05a2.13,2.13,0,0,0-2.09,1.66c-.49,1.84,1.05,7.47,2.08,10.75,1.27-4.08,2.66-9.52,2.2-10.95A2.18,2.18,0,0,0,192.56,324Z" style="fill:#263238"></path><path d="M192.53,362.75a.5.5,0,0,1-.5-.5V328.78a.5.5,0,0,1,1,0v33.47A.5.5,0,0,1,192.53,362.75Z" style="fill:#263238"></path><path d="M192.61,359.13s1.71-4.92,4.92-7.06,6.63-.21,6.63,1.6S196.25,355.6,192.61,359.13Z" style="fill:#92E3A9"></path><path d="M192.61,359.62a.54.54,0,0,1-.27-.07.52.52,0,0,1-.2-.59c.07-.21,1.8-5.1,5.11-7.31a5.49,5.49,0,0,1,5.63-.44,3,3,0,0,1,1.78,2.46c0,1.22-1.76,1.72-4.2,2.41s-5.63,1.59-7.5,3.4A.46.46,0,0,1,192.61,359.62Zm7.89-8a4.8,4.8,0,0,0-2.69.86,13.15,13.15,0,0,0-4,5.07,25.78,25.78,0,0,1,6.35-2.45c1.47-.41,3.48-1,3.48-1.44a2.08,2.08,0,0,0-1.25-1.58A4.11,4.11,0,0,0,200.5,351.63Z" style="fill:#263238"></path><path d="M192.29,359.13s-1.71-4.92-4.92-7.06-6.62-.21-6.62,1.6S188.66,355.6,192.29,359.13Z" style="fill:#92E3A9"></path><path d="M192.29,359.62a.49.49,0,0,1-.35-.14c-1.87-1.81-5-2.69-7.49-3.4s-4.2-1.19-4.2-2.41a3,3,0,0,1,1.77-2.46,5.49,5.49,0,0,1,5.63.44c3.31,2.21,5,7.1,5.11,7.31a.48.48,0,0,1-.47.66Zm-7.88-8a4.12,4.12,0,0,0-1.92.46,2.08,2.08,0,0,0-1.24,1.58c0,.46,2,1,3.47,1.44a26,26,0,0,1,6.36,2.45,13.15,13.15,0,0,0-4-5.07A4.83,4.83,0,0,0,184.41,351.63Z" style="fill:#263238"></path><path d="M192.61,351.11s1.71-4.92,4.92-7.06,6.63-.21,6.63,1.61S196.25,347.58,192.61,351.11Z" style="fill:#92E3A9"></path><path d="M192.61,351.61a.56.56,0,0,1-.27-.08.52.52,0,0,1-.2-.59c.07-.2,1.8-5.1,5.11-7.3a5.48,5.48,0,0,1,5.63-.45,3,3,0,0,1,1.78,2.47c0,1.21-1.76,1.71-4.2,2.4s-5.63,1.59-7.5,3.41A.5.5,0,0,1,192.61,351.61Zm7.89-8a4.8,4.8,0,0,0-2.69.86,13.22,13.22,0,0,0-4,5.07,25.5,25.5,0,0,1,6.35-2.44c1.47-.42,3.48-1,3.48-1.44a2.08,2.08,0,0,0-1.25-1.59A4.11,4.11,0,0,0,200.5,343.61Z" style="fill:#263238"></path><path d="M192.29,351.11s-1.71-4.92-4.92-7.06-6.62-.21-6.62,1.61S188.66,347.58,192.29,351.11Z" style="fill:#92E3A9"></path><path d="M192.29,351.61a.54.54,0,0,1-.35-.14c-1.87-1.82-5-2.7-7.49-3.41s-4.2-1.19-4.2-2.4a3,3,0,0,1,1.77-2.47,5.48,5.48,0,0,1,5.63.45c3.31,2.2,5,7.1,5.11,7.3a.5.5,0,0,1-.2.59A.5.5,0,0,1,192.29,351.61Zm-7.88-8a4,4,0,0,0-1.91.46,2.08,2.08,0,0,0-1.25,1.59c0,.45,2,1,3.47,1.44a25.57,25.57,0,0,1,6.36,2.44,13.22,13.22,0,0,0-4-5.07A4.83,4.83,0,0,0,184.41,343.61Z" style="fill:#263238"></path><path d="M192.61,343.09s1.71-4.92,4.92-7.06,6.63-.21,6.63,1.61S196.25,339.56,192.61,343.09Z" style="fill:#92E3A9"></path><path d="M192.61,343.59a.56.56,0,0,1-.27-.08.52.52,0,0,1-.2-.59c.07-.2,1.8-5.1,5.11-7.3a5.48,5.48,0,0,1,5.63-.45,3,3,0,0,1,1.78,2.47c0,1.21-1.76,1.71-4.2,2.4s-5.63,1.59-7.5,3.41A.5.5,0,0,1,192.61,343.59Zm7.89-8a4.79,4.79,0,0,0-2.69.85,13.17,13.17,0,0,0-4,5.08,25,25,0,0,1,6.35-2.45c1.47-.42,3.48-1,3.48-1.44a2,2,0,0,0-1.25-1.58A4,4,0,0,0,200.5,335.6Z" style="fill:#263238"></path><path d="M192.29,343.09s-1.71-4.92-4.92-7.06-6.62-.21-6.62,1.61S188.66,339.56,192.29,343.09Z" style="fill:#92E3A9"></path><path d="M192.29,343.59a.54.54,0,0,1-.35-.14c-1.87-1.82-5-2.7-7.49-3.41s-4.2-1.19-4.2-2.4a3,3,0,0,1,1.77-2.47,5.48,5.48,0,0,1,5.63.45c3.31,2.2,5,7.1,5.11,7.3a.49.49,0,0,1-.2.59A.5.5,0,0,1,192.29,343.59Zm-7.88-8a4,4,0,0,0-1.92.46,2.05,2.05,0,0,0-1.24,1.58c0,.45,2,1,3.47,1.44a25.22,25.22,0,0,1,6.36,2.45,13.17,13.17,0,0,0-4-5.08A4.81,4.81,0,0,0,184.41,335.6Z" style="fill:#263238"></path></g><g id="freepik--Picture--inject-7"><rect x="32.56" y="281" width="35.31" height="44.38" style="fill:#fff"></rect><path d="M67.88,325.88H32.56a.5.5,0,0,1-.5-.5V281a.5.5,0,0,1,.5-.5H67.88a.5.5,0,0,1,.5.5v44.38A.5.5,0,0,1,67.88,325.88Zm-34.82-1H67.38V281.5H33.06Z" style="fill:#263238"></path><rect x="35.89" y="285.18" width="28.66" height="36.02" style="fill:#fff"></rect><path d="M64.55,321.7H35.89a.5.5,0,0,1-.5-.5v-36a.5.5,0,0,1,.5-.5H64.55a.5.5,0,0,1,.5.5v36A.5.5,0,0,1,64.55,321.7Zm-28.16-1H64.05v-35H36.39Z" style="fill:#263238"></path><rect x="44.01" y="295.39" width="12.42" height="15.61" style="fill:#92E3A9"></rect><path d="M56.43,311.5H44a.5.5,0,0,1-.5-.5V295.39a.5.5,0,0,1,.5-.5H56.43a.5.5,0,0,1,.5.5V311A.5.5,0,0,1,56.43,311.5Zm-11.92-1H55.93V295.89H44.51Z" style="fill:#263238"></path></g><g id="freepik--table-1--inject-7"><rect x="102.93" y="294.11" width="38.98" height="28.71" style="fill:#fff"></rect><path d="M141.91,323.32h-39a.5.5,0,0,1-.5-.5V294.11a.5.5,0,0,1,.5-.5h39a.5.5,0,0,1,.5.5v28.71A.5.5,0,0,1,141.91,323.32Zm-38.48-1h38V294.61h-38Z" style="fill:#263238"></path><rect x="101.71" y="294.11" width="38.98" height="28.71" style="fill:#fff"></rect><path d="M140.69,323.32h-39a.5.5,0,0,1-.5-.5V294.11a.5.5,0,0,1,.5-.5h39a.5.5,0,0,1,.5.5v28.71A.5.5,0,0,1,140.69,323.32Zm-38.48-1h38V294.61h-38Z" style="fill:#263238"></path><rect x="104.63" y="296.26" width="33.14" height="24.41" style="fill:#fff"></rect><path d="M137.77,321.17H104.63a.5.5,0,0,1-.5-.5V296.26a.5.5,0,0,1,.5-.5h33.14a.5.5,0,0,1,.5.5v24.41A.5.5,0,0,1,137.77,321.17Zm-32.64-1h32.14V296.76H105.13Z" style="fill:#263238"></path><rect x="118.89" y="322.85" width="7.79" height="10.75" style="fill:#fff"></rect><path d="M126.69,334.1h-7.8a.51.51,0,0,1-.5-.5V322.85a.5.5,0,0,1,.5-.5h7.8a.5.5,0,0,1,.5.5V333.6A.5.5,0,0,1,126.69,334.1Zm-7.3-1h6.8v-9.75h-6.8Z" style="fill:#263238"></path><rect x="117.3" y="322.85" width="7.79" height="10.75" style="fill:#fff"></rect><path d="M125.1,334.1h-7.8a.51.51,0,0,1-.5-.5V322.85a.5.5,0,0,1,.5-.5h7.8a.5.5,0,0,1,.5.5V333.6A.5.5,0,0,1,125.1,334.1Zm-7.3-1h6.8v-9.75h-6.8Z" style="fill:#263238"></path><rect x="111.87" y="333.36" width="18.66" height="1.89" style="fill:#fff"></rect><path d="M130.53,335.75H111.87a.5.5,0,0,1-.5-.5v-1.89a.5.5,0,0,1,.5-.5h18.66a.5.5,0,0,1,.5.5v1.89A.5.5,0,0,1,130.53,335.75Zm-18.16-1H130v-.89H112.37Z" style="fill:#263238"></path><rect x="77.14" y="339.67" width="18.68" height="41.49" style="fill:#263238"></rect><path d="M95.82,381.66H77.14a.5.5,0,0,1-.5-.5V339.67a.5.5,0,0,1,.5-.5H95.82a.5.5,0,0,1,.5.5v41.49A.51.51,0,0,1,95.82,381.66Zm-18.18-1H95.32V340.17H77.64Z" style="fill:#263238"></path><path d="M154.24,338.42H72.51a.5.5,0,0,1-.5-.5v-2.55a.5.5,0,0,1,.5-.5h81.73a.5.5,0,0,1,.5.5v2.55A.5.5,0,0,1,154.24,338.42Zm-81.23-1h80.73v-1.55H73Z" style="fill:#263238"></path><path d="M154.24,338.42H135.3a.51.51,0,0,1-.5-.5v-2.55a.5.5,0,0,1,.5-.5h18.94a.5.5,0,0,1,.5.5v2.55A.5.5,0,0,1,154.24,338.42Zm-18.44-1h17.94v-1.55H135.8Z" style="fill:#263238"></path><polygon points="74.66 337.88 74.66 381.16 77.84 381.16 77.84 343.06 112.39 343.06 112.39 381.16 153 381.16 153 337.88 74.66 337.88" style="fill:#fff"></polygon><path d="M153,381.66H112.39a.51.51,0,0,1-.5-.5v-37.6H78.34v37.6a.51.51,0,0,1-.5.5H74.66a.5.5,0,0,1-.5-.5V337.88a.5.5,0,0,1,.5-.5H153a.51.51,0,0,1,.5.5v43.28A.51.51,0,0,1,153,381.66Zm-40.11-1H152.5V338.38H75.16v42.28h2.18v-37.6a.5.5,0,0,1,.5-.5h34.55a.5.5,0,0,1,.5.5Z" style="fill:#263238"></path><rect x="134.32" y="337.88" width="18.68" height="43.28" style="fill:#263238"></rect><path d="M153,381.66H134.32a.5.5,0,0,1-.5-.5V337.88a.5.5,0,0,1,.5-.5H153a.51.51,0,0,1,.5.5v43.28A.51.51,0,0,1,153,381.66Zm-18.18-1H152.5V338.38H134.82Z" style="fill:#263238"></path><rect x="114.57" y="343.4" width="17.21" height="8.69" style="fill:#fff"></rect><path d="M131.78,352.58H114.57a.5.5,0,0,1-.5-.5V343.4a.5.5,0,0,1,.5-.5h17.21a.5.5,0,0,1,.5.5v8.68A.5.5,0,0,1,131.78,352.58Zm-16.71-1h16.21V343.9H115.07Z" style="fill:#263238"></path><path d="M125.09,348.07h-3.84a.5.5,0,0,1-.5-.5.5.5,0,0,1,.5-.5h3.84a.5.5,0,0,1,.5.5A.5.5,0,0,1,125.09,348.07Z" style="fill:#263238"></path><rect x="114.57" y="354.59" width="17.21" height="8.69" style="fill:#fff"></rect><path d="M131.78,363.78H114.57a.5.5,0,0,1-.5-.5v-8.69a.5.5,0,0,1,.5-.5h17.21a.51.51,0,0,1,.5.5v8.69A.5.5,0,0,1,131.78,363.78Zm-16.71-1h16.21v-7.69H115.07Z" style="fill:#263238"></path><path d="M125.09,359.6h-3.84a.5.5,0,0,1-.5-.5.5.5,0,0,1,.5-.5h3.84a.5.5,0,0,1,.5.5A.5.5,0,0,1,125.09,359.6Z" style="fill:#263238"></path><rect x="114.57" y="365.79" width="17.21" height="8.69" style="fill:#fff"></rect><path d="M131.78,375H114.57a.5.5,0,0,1-.5-.5v-8.68a.5.5,0,0,1,.5-.5h17.21a.5.5,0,0,1,.5.5v8.68A.5.5,0,0,1,131.78,375Zm-16.71-1h16.21v-7.68H115.07Z" style="fill:#263238"></path><path d="M125.09,371h-3.84a.5.5,0,0,1-.5-.5.5.5,0,0,1,.5-.5h3.84a.5.5,0,0,1,.5.5A.5.5,0,0,1,125.09,371Z" style="fill:#263238"></path></g><g id="freepik--chair-1--inject-7"><rect x="72.75" y="353.08" width="2.24" height="17.15" style="fill:#263238"></rect><path d="M75,370.73H72.75a.5.5,0,0,1-.5-.5V353.08a.5.5,0,0,1,.5-.5H75a.5.5,0,0,1,.5.5v17.15A.5.5,0,0,1,75,370.73Zm-1.74-1h1.24V353.58H73.25Z" style="fill:#263238"></path><circle cx="59.4" cy="378.87" r="1.79" style="fill:#263238"></circle><path d="M59.4,381.16a2.3,2.3,0,1,1,2.29-2.29A2.3,2.3,0,0,1,59.4,381.16Zm0-3.59a1.3,1.3,0,1,0,1.29,1.3A1.3,1.3,0,0,0,59.4,377.57Z" style="fill:#263238"></path><circle cx="88.24" cy="378.87" r="1.79" style="fill:#263238"></circle><path d="M88.24,381.16a2.3,2.3,0,1,1,2.29-2.29A2.3,2.3,0,0,1,88.24,381.16Zm0-3.59a1.3,1.3,0,1,0,1.29,1.3A1.3,1.3,0,0,0,88.24,377.57Z" style="fill:#263238"></path><polygon points="74.75 370.23 73.75 370.38 72.75 370.23 56.88 376.89 56.88 378.22 59.54 378.22 60.13 376.89 73.75 373.34 87.36 376.89 87.96 378.22 90.62 378.22 90.62 376.89 74.75 370.23" style="fill:#263238"></polygon><path d="M90.62,378.72H88a.5.5,0,0,1-.46-.29L87,377.31l-13.26-3.45-13.26,3.45L60,378.43a.5.5,0,0,1-.46.29H56.88a.5.5,0,0,1-.5-.5v-1.33a.5.5,0,0,1,.31-.46l15.87-6.66a.46.46,0,0,1,.26,0l.93.13.93-.13a.47.47,0,0,1,.26,0l15.87,6.66a.5.5,0,0,1,.31.46v1.33A.5.5,0,0,1,90.62,378.72Zm-2.34-1h1.84v-.5l-15.43-6.47-.87.13h-.14l-.86-.13-15.44,6.47v.5h1.84l.46-1a.49.49,0,0,1,.33-.28l13.61-3.55a.39.39,0,0,1,.26,0l13.61,3.55a.49.49,0,0,1,.33.28Z" style="fill:#263238"></path><rect x="72.75" y="370.23" width="2.29" height="8.6" style="fill:#263238"></rect><path d="M75,379.33H72.75a.5.5,0,0,1-.5-.5v-8.6a.5.5,0,0,1,.5-.5H75a.5.5,0,0,1,.5.5v8.6A.5.5,0,0,1,75,379.33Zm-1.79-1h1.29v-7.6H73.25Z" style="fill:#263238"></path><rect x="72.77" y="378.31" width="2.1" height="2.85" style="fill:#263238"></rect><path d="M74.87,381.66h-2.1a.5.5,0,0,1-.5-.5v-2.85a.5.5,0,0,1,.5-.5h2.1a.5.5,0,0,1,.5.5v2.85A.5.5,0,0,1,74.87,381.66Zm-1.6-1h1.1v-1.85h-1.1Z" style="fill:#263238"></path><path d="M78,350.09H58.56V321.53a9.71,9.71,0,0,1,9.71-9.71h0A9.71,9.71,0,0,1,78,321.53Z" style="fill:#bfbfbf"></path><path d="M78,350.59H58.56a.5.5,0,0,1-.5-.5V321.53a10.21,10.21,0,0,1,20.42,0v28.56A.5.5,0,0,1,78,350.59Zm-18.92-1H77.48V321.53a9.21,9.21,0,0,0-18.42,0Z" style="fill:#263238"></path><path d="M81.34,350.09H61.92V321.53a9.71,9.71,0,0,1,9.71-9.71h0a9.71,9.71,0,0,1,9.71,9.71Z" style="fill:#bfbfbf"></path><path d="M81.34,350.59H61.92a.5.5,0,0,1-.5-.5V321.53a10.21,10.21,0,0,1,20.42,0v28.56A.5.5,0,0,1,81.34,350.59Zm-18.92-1H80.84V321.53a9.21,9.21,0,0,0-18.42,0Z" style="fill:#263238"></path><rect x="58.56" y="345.8" width="33.42" height="4.29" style="fill:#bfbfbf"></rect><path d="M92,350.59H58.56a.5.5,0,0,1-.5-.5V345.8a.5.5,0,0,1,.5-.5H92a.5.5,0,0,1,.5.5v4.29A.5.5,0,0,1,92,350.59Zm-32.92-1H91.48V346.3H59.06Z" style="fill:#263238"></path><rect x="74.99" y="345.8" width="16.99" height="4.29" style="fill:#bfbfbf"></rect><path d="M92,350.59H75a.5.5,0,0,1-.5-.5V345.8a.5.5,0,0,1,.5-.5H92a.5.5,0,0,1,.5.5v4.29A.5.5,0,0,1,92,350.59Zm-16.49-1h16V346.3h-16Z" style="fill:#263238"></path><rect x="68.27" y="350.28" width="11.95" height="2.61" style="fill:#263238"></rect><path d="M80.22,353.39h-12a.5.5,0,0,1-.5-.5v-2.61a.5.5,0,0,1,.5-.5h12a.5.5,0,0,1,.5.5v2.61A.5.5,0,0,1,80.22,353.39Zm-11.45-1h11v-1.61h-11Z" style="fill:#263238"></path></g><g id="freepik--Floor--inject-7"><path d="M471.07,381.66H32.36a.5.5,0,0,1-.5-.5.5.5,0,0,1,.5-.5H471.07a.5.5,0,0,1,.5.5A.5.5,0,0,1,471.07,381.66Z" style="fill:#263238"></path></g><g id="freepik--Character--inject-7"><path d="M221.43,59.27s-12.05,3.35-18.75,9.38a30.42,30.42,0,0,0-9.82,20.53c-.22,6-10.27,39.74-8,47.1s25.9,13.84,32.15,14.29,19.86,2.45,32.58-2.46,21.66-14.28,22.55-17.86.89-8.48-2.68-16.07-.67-24.1-11.83-39.06S230.58,55,221.43,59.27Z" style="fill:#263238"></path><path d="M230.13,151.86c-4.12,0-7.82-.33-10.71-.59l-2.49-.21c-6-.42-30.2-6.78-32.58-14.63-1.49-4.89,2.15-20.46,5.08-33,1.53-6.56,2.85-12.22,2.93-14.3a31.12,31.12,0,0,1,10-20.89c6.58-5.93,18-9.23,18.91-9.48,9.07-4.17,25.28.68,36.73,16,7.37,9.87,8.65,20.26,9.69,28.61.53,4.28,1,8,2.19,10.54,3,6.45,3.9,11.66,2.71,16.41-.88,3.52-9.74,13.14-22.85,18.2A54.41,54.41,0,0,1,230.13,151.86Zm-1.68-93.5a16.14,16.14,0,0,0-6.81,1.37l-.08,0c-.12,0-12,3.38-18.55,9.26a30.08,30.08,0,0,0-9.65,20.18c-.08,2.18-1.35,7.62-3,14.5-2.74,11.73-6.5,27.8-5.1,32.44,2.08,6.84,25.12,13.46,31.7,13.93.74.05,1.58.12,2.5.21,7,.62,18.75,1.66,29.87-2.63,12.8-4.94,21.41-14.16,22.24-17.52,1.13-4.5.29-9.5-2.64-15.73-1.28-2.71-1.74-6.48-2.28-10.85-1-8.23-2.29-18.47-9.5-28.13C248.54,63.83,237.18,58.36,228.45,58.36Zm-7,.91h0Z" style="fill:#263238"></path><polygon points="267.78 268.12 255.44 228.48 248.32 143.23 214.6 145.15 212.41 228.21 205.32 268.12 267.78 268.12" style="fill:#fff"></polygon><path d="M267.78,268.62H205.32a.53.53,0,0,1-.39-.18.56.56,0,0,1-.11-.41l7.09-39.91,2.19-83a.49.49,0,0,1,.47-.49l33.72-1.92a.5.5,0,0,1,.52.46l7.13,85.2L268.26,268a.5.5,0,0,1-.08.44A.49.49,0,0,1,267.78,268.62Zm-61.87-1H267.1l-12.13-39a.35.35,0,0,1,0-.11l-7.08-84.76-32.77,1.86-2.19,82.6Z" style="fill:#263238"></path><polygon points="214.15 162.25 234.25 152.62 223.12 144.66 214.6 145.15 214.15 162.25" style="fill:#263238"></polygon><path d="M214.15,162.75a.57.57,0,0,1-.28-.08.5.5,0,0,1-.22-.43l.45-17.1a.49.49,0,0,1,.47-.49l8.52-.49a.53.53,0,0,1,.32.1l11.13,8a.47.47,0,0,1,.21.45.49.49,0,0,1-.28.41l-20.11,9.63A.54.54,0,0,1,214.15,162.75Zm.94-17.13-.42,15.83,18.6-8.92L223,145.17Z" style="fill:#263238"></path><polygon points="267.78 268.12 255.44 228.48 251.93 186.4 213.47 187.94 212.41 228.21 205.32 268.12 267.78 268.12" style="fill:#fff"></polygon><path d="M267.78,268.62H205.32a.53.53,0,0,1-.39-.18.56.56,0,0,1-.11-.41l7.09-39.91L213,187.93a.51.51,0,0,1,.48-.49l38.45-1.54a.49.49,0,0,1,.52.46l3.52,42L268.26,268a.5.5,0,0,1-.08.44A.49.49,0,0,1,267.78,268.62Zm-61.87-1H267.1l-12.13-39a.35.35,0,0,1,0-.11l-3.47-41.6L214,188.42l-1.06,39.8Z" style="fill:#263238"></path><polygon points="303 151.16 321.51 224.37 309.99 262.75 293.82 247.67 303 151.16" style="fill:#92E3A9"></polygon><path d="M310,263.25a.55.55,0,0,1-.34-.13L293.48,248a.54.54,0,0,1-.16-.42l9.18-96.51a.5.5,0,0,1,1-.08L322,224.25a.57.57,0,0,1,0,.26l-11.52,38.38a.49.49,0,0,1-.34.34Zm-15.65-15.78,15.41,14.36L321,224.36l-17.77-70.28Z" style="fill:#263238"></path><polygon points="344.81 237.8 346.19 217 338.8 223.62 344.81 237.8" style="fill:#263238"></polygon><path d="M344.81,238.3a.49.49,0,0,1-.46-.3l-6-14.19a.5.5,0,0,1,.13-.56l7.39-6.62a.53.53,0,0,1,.55-.08.48.48,0,0,1,.28.49l-1.38,20.8a.51.51,0,0,1-.42.46Zm-5.41-14.55,5.05,11.92,1.16-17.48Z" style="fill:#263238"></path><path d="M338.5,208.47s13.71-14.25,15.35-14.8,21.66,0,21.66,0,4.94-.82,7.68-1.1,9-4.11,8.49-1.37-4.93,3.57-5.75,3.84,10.69,0,10.69,0,4.11-1.37,2.19,1.64S387.57,208.2,383.73,209s-31.79,3.84-31.79,3.84l-9.87,12.88Z" style="fill:#fff"></path><path d="M342.07,226.24H342a.49.49,0,0,1-.38-.39L338,208.57a.53.53,0,0,1,.13-.45c2.31-2.39,13.88-14.37,15.56-14.93s19.77-.08,21.82,0c0,0,4.89-.82,7.62-1.1a17.6,17.6,0,0,0,3.7-1.16c2.58-1,4.21-1.57,5-.9a1.22,1.22,0,0,1,.33,1.29c-.34,1.72-1.91,2.74-3.41,3.36,2.26,0,5.46-.06,7.77-.12.64-.2,2.41-.67,3.07.17s-.13,1.87-.37,2.24c-2,3.11-11.39,11.7-15.39,12.56-3.69.79-28.85,3.52-31.64,3.82l-9.74,12.72A.49.49,0,0,1,342.07,226.24Zm-3-17.61,3.29,15.94,9.2-12a.55.55,0,0,1,.34-.19c.28,0,28-3,31.75-3.83s12.9-9.19,14.76-12.11c.47-.75.45-1,.42-1.09s-1.07-.14-2,.18a.4.4,0,0,1-.15,0c-11.12.26-11.14.15-11.24-.39a.58.58,0,0,1,.38-.59l.48-.13c1.24-.34,4.52-1.23,4.94-3.33.05-.23,0-.32,0-.33-.39-.32-2.65.55-4,1.07a18.32,18.32,0,0,1-4,1.23c-2.7.27-7.6,1.08-7.65,1.09-8.1-.21-20.43-.4-21.58,0S344.33,203.14,339.05,208.63Z" style="fill:#263238"></path><path d="M394.06,201.05s5.25-4.28,5.84-7-.78-8.75-2.14-7.2-1.37,5.06-1.75,6.43S394.06,201.05,394.06,201.05Z" style="fill:#fff"></path><path d="M394.06,201.55a.56.56,0,0,1-.27-.08.5.5,0,0,1-.22-.54c.07-.26,1.57-6.45,2-7.8a15,15,0,0,0,.27-1.59c.23-1.7.52-3.81,1.58-5a1,1,0,0,1,1.27-.32c1.46.73,2.21,5.73,1.74,8-.62,2.86-5.79,7.11-6,7.29A.56.56,0,0,1,394.06,201.55Zm4.15-14.45-.08.07c-.86,1-1.14,3-1.34,4.5a15.42,15.42,0,0,1-.3,1.73c-.27.93-1.09,4.26-1.57,6.24,1.71-1.55,4.14-4,4.49-5.7C399.93,191.48,398.85,187.36,398.21,187.1Z" style="fill:#263238"></path><path d="M398.15,200.66s5.25-4.28,5.83-7-.77-8.75-2.14-7.19-1.36,5-1.75,6.42S398.15,200.66,398.15,200.66Z" style="fill:#fff"></path><path d="M398.15,201.16a.51.51,0,0,1-.49-.62c.06-.26,1.56-6.45,1.95-7.8a12.82,12.82,0,0,0,.27-1.59c.24-1.7.53-3.81,1.59-5a1,1,0,0,1,1.26-.32c1.47.73,2.22,5.73,1.74,7.95-.61,2.86-5.79,7.11-6,7.29A.51.51,0,0,1,398.15,201.16Zm4.14-14.45-.07.07c-.86,1-1.14,3-1.34,4.5a13.2,13.2,0,0,1-.31,1.73c-.26.93-1.08,4.26-1.57,6.25,1.71-1.56,4.14-4.06,4.49-5.71C404,191.1,402.93,187,402.29,186.71Z" style="fill:#263238"></path><path d="M387.9,206.24l10.25-5.58s3.5-6.42,3.11-9.34-3.05-1-3.31.39-4.28,7.2-4.86,8S387.9,206.24,387.9,206.24Z" style="fill:#fff"></path><path d="M387.9,206.74a.5.5,0,0,1-.39-.81c0-.06,4.6-5.78,5.18-6.54.91-1.22,4.55-6.6,4.77-7.77a3.11,3.11,0,0,1,2.66-2.33c.41,0,1.4.23,1.64,2,.4,3.05-3,9.38-3.18,9.65a.48.48,0,0,1-.2.2l-10.24,5.58A.53.53,0,0,1,387.9,206.74Zm12.17-16.45a2.19,2.19,0,0,0-1.63,1.51c-.31,1.68-4.91,8.13-4.95,8.19-.37.49-2.27,2.87-3.66,4.63l7.95-4.33c.48-.91,3.32-6.4,3-8.9-.06-.5-.23-1.09-.67-1.1Z" style="fill:#263238"></path><path d="M348.71,204.57s3.35-3.35,6.69-3.35S381,204.57,381,204.57,397.69,190,397.69,193.1s-8.12,11.94-9.79,13.14-4.06,3.1-6.69,3.58-12.9,1-12.9,1" style="fill:#fff"></path><path d="M368.3,211.28a.5.5,0,0,1,0-1c.1,0,10.27-.48,12.84-.95,2.23-.41,4.36-2,5.92-3.09l.57-.41c1.61-1.15,9.48-9.74,9.58-12.67-1.5,0-9.16,5.91-15.89,11.78a.5.5,0,0,1-.41.12c-.22,0-22.22-3.34-25.49-3.34-3.09,0-6.3,3.17-6.33,3.2a.5.5,0,0,1-.71-.71c.14-.14,3.53-3.49,7-3.49,3.2,0,22.92,2.94,25.41,3.32,4.57-4,14.92-12.67,16.88-11.79a.88.88,0,0,1,.5.85c0,3.51-8.5,12.47-10,13.55l-.56.4c-1.64,1.19-3.88,2.82-6.33,3.26-2.63.48-12.55.95-13,1Z" style="fill:#263238"></path><path d="M312.19,230.13l26.31-21.66,6.31,29.33s-28.51,28.24-31,27.69-11.24-9.87-11.24-9.87" style="fill:#92E3A9"></path><path d="M313.83,266h-.11c-2.54-.57-10.58-9.05-11.49-10a.49.49,0,0,1,0-.7.5.5,0,0,1,.71,0c3.48,3.7,9.28,9.34,11,9.72,2-.05,19.57-16.72,30.32-27.36l-6.07-28.26-25.68,21.13a.51.51,0,0,1-.71-.06.52.52,0,0,1,.07-.71l26.32-21.65a.47.47,0,0,1,.48-.09.5.5,0,0,1,.32.37l6.31,29.33a.53.53,0,0,1-.14.46C338.51,244.74,316.83,266,313.83,266Z" style="fill:#263238"></path><polygon points="299.41 218.97 301.04 253.53 297.13 250.92 299.41 218.97" style="fill:#263238"></polygon><path d="M301,254a.57.57,0,0,1-.28-.08l-3.91-2.61a.5.5,0,0,1-.22-.45l2.28-31.95a.5.5,0,0,1,.51-.47.5.5,0,0,1,.49.48l1.63,34.56a.51.51,0,0,1-.25.46A.54.54,0,0,1,301,254Zm-3.39-3.36,2.84,1.9-1.18-25.15Z" style="fill:#263238"></path><path d="M263,268.12h32.62c1.34-15.64,8.11-112.41,7.36-117-.83-4.94-7.41-6.31-7.41-6.31l-47.27-1.62s-.83,86.9.27,91.28C249.52,238.22,259.84,261.11,263,268.12Z" style="fill:#92E3A9"></path><path d="M295.64,268.62H263a.51.51,0,0,1-.46-.3c-3.15-6.95-13.52-29.93-14.45-33.69-1.1-4.39-.33-87.85-.29-91.41a.47.47,0,0,1,.15-.35.5.5,0,0,1,.36-.14l47.28,1.62c.37.07,7,1.51,7.88,6.73.78,4.68-6.08,102.23-7.35,117.08A.5.5,0,0,1,295.64,268.62Zm-32.3-1h31.84c1.45-17.3,8.05-112,7.32-116.38-.75-4.53-6.95-5.89-7-5.9l-46.68-1.59c-.06,7.18-.76,86.54.26,90.64C250,238,260.05,260.35,263.34,267.62Z" style="fill:#263238"></path><path d="M255.44,180.51l12.61-9.87-11.32-27.79-8.41.38s-.83,86.9.27,91.28c0,0,22.2-42.76,22.48-44.68S255.44,180.51,255.44,180.51Z" style="fill:#92E3A9"></path><path d="M248.59,235h-.06a.49.49,0,0,1-.42-.38c-1.1-4.39-.33-87.85-.29-91.41a.49.49,0,0,1,.47-.49l8.42-.38a.47.47,0,0,1,.48.32l11.33,27.78a.51.51,0,0,1-.16.59l-12,9.36c6.11,2.87,15.45,7.59,15.17,9.5S251.31,230.36,249,234.74A.48.48,0,0,1,248.59,235Zm.22-91.3c-.06,6.5-.68,77.09.09,89.11,8.85-17,21.41-41.6,21.67-43.06-.21-1.11-8.12-5.44-15.34-8.8a.48.48,0,0,1-.28-.39.5.5,0,0,1,.18-.45l12.32-9.64L256.4,143.37Z" style="fill:#263238"></path><path d="M167.69,213.1l2.08,55h39.64c3.06-6.83,14.05-31.85,14.05-39.4,0-8.77-7.08-83-7.08-83s-34.74,6.06-44.18,8.43c-4.3,1.08-9.4-.74-16.57,8.71-.91,1.21-44.81,64.48-44.81,64.48l40.47,12.14Z" style="fill:#92E3A9"></path><path d="M209.41,268.62H169.77a.51.51,0,0,1-.5-.49l-2-53.37-15.55,25a.5.5,0,0,1-.57.22l-40.47-12.14a.52.52,0,0,1-.33-.32.49.49,0,0,1,.07-.45c1.79-2.58,43.91-63.29,44.82-64.49,5.78-7.62,10.37-8.09,14.06-8.47a21.47,21.47,0,0,0,2.79-.42c9.35-2.35,43.87-8.38,44.21-8.44a.53.53,0,0,1,.39.09.55.55,0,0,1,.2.35c.07.75,7.08,74.33,7.08,83,0,7.59-10.78,32.23-14.09,39.6A.51.51,0,0,1,209.41,268.62Zm-39.16-1h38.84C212.52,260,223,236,223,228.72c0-8.25-6.38-75.64-7-82.38-4.42.77-34.93,6.15-43.61,8.33a21.08,21.08,0,0,1-2.93.44c-3.68.38-7.84.81-13.36,8.09-.85,1.12-40,57.58-44.41,63.89l39.45,11.83,16.2-26.08a.5.5,0,0,1,.92.24Z" style="fill:#263238"></path><polygon points="167.69 213.1 166.72 185.06 163.78 219.3 167.69 213.1" style="fill:#263238"></polygon><path d="M163.78,219.8a.45.45,0,0,1-.16,0,.5.5,0,0,1-.34-.52L166.22,185a.48.48,0,0,1,.51-.46.51.51,0,0,1,.49.49l1,28a.45.45,0,0,1-.07.28l-3.92,6.19A.49.49,0,0,1,163.78,219.8Zm2.73-26.43-2.06,23.92,2.74-4.32Z" style="fill:#263238"></path><path d="M471.07,268.62H32.36a.5.5,0,0,1-.5-.5.5.5,0,0,1,.5-.5H471.07a.5.5,0,0,1,.5.5A.5.5,0,0,1,471.07,268.62Z" style="fill:#263238"></path><path d="M216.38,145.75l-8.9,1.58c-3.11,6.93-9.95,22.52-8.64,23,1.69.68,12.48,11.13,12.48,11.13L197.83,192s22.26,39.79,23.61,42.83a5.13,5.13,0,0,0,.64,1,28.65,28.65,0,0,0,1.38-7.09C223.46,220,216.38,145.75,216.38,145.75Z" style="fill:#92E3A9"></path><path d="M222.08,236.31a.53.53,0,0,1-.4-.19A6.37,6.37,0,0,1,221,235c-1.32-3-23.36-42.39-23.59-42.79a.51.51,0,0,1,.13-.64l13-10.1c-4.32-4.17-10.77-10.17-11.9-10.62a.72.72,0,0,1-.4-.41c-.54-1.33,2.41-9.17,8.76-23.3a.52.52,0,0,1,.37-.29l8.9-1.58a.53.53,0,0,1,.39.09.55.55,0,0,1,.2.35c.07.75,7.08,74.33,7.08,83a29,29,0,0,1-1.4,7.23.51.51,0,0,1-.39.36Zm-23.6-44.22c2.4,4.3,22.13,39.6,23.42,42.5h0a24.56,24.56,0,0,0,1.06-5.88c0-8.25-6.38-75.64-7-82.38-1.16.2-4.17.73-8.1,1.44-6.61,14.7-8.78,21.1-8.66,22.2,2.07,1.09,11.42,10.11,12.5,11.16a.51.51,0,0,1,.15.39.54.54,0,0,1-.19.37Z" style="fill:#263238"></path><path d="M202.79,115.53l-3.23,4.64s0,7.27,5.85,9.28Z" style="fill:#fff"></path><path d="M205.41,130l-.16,0c-6.12-2.11-6.19-9.68-6.19-9.76a.47.47,0,0,1,.09-.28l3.23-4.64a.49.49,0,0,1,.51-.21.52.52,0,0,1,.39.4l2.62,13.92a.49.49,0,0,1-.16.47A.5.5,0,0,1,205.41,130Zm-5.35-9.63c.05,1,.47,6.27,4.69,8.32l-2.23-11.84Z" style="fill:#263238"></path><path d="M254.71,115.5l3.7,2.31s1.9,8.67-3.41,11.85Z" style="fill:#fff"></path><path d="M255,130.16a.45.45,0,0,1-.25-.07.48.48,0,0,1-.25-.42l-.29-14.16a.51.51,0,0,1,.26-.45.49.49,0,0,1,.51,0l3.7,2.32a.52.52,0,0,1,.22.32c.08.37,1.91,9.06-3.65,12.38A.55.55,0,0,1,255,130.16Zm.23-13.75.25,12.3c3.65-3,2.7-9.37,2.48-10.59Z" style="fill:#263238"></path><path d="M225.89,81.82s0,4.24-8.92,14.06-15.41,10.71-15.41,10.71S205,128.39,206,132c3,10.73,18.3,22.77,23.44,23.66s7.58-.45,10-2,15.32-13.95,16.29-25.89c.22-2.68-1.78-19.42-1.78-19.42s-3.57-.67-9.38-5.36-7.14-7.81-7.14-7.81l2.23,8.26S227.46,91.64,225.89,81.82Z" style="fill:#fff"></path><path d="M232.51,156.49a17.67,17.67,0,0,1-3.13-.3c-5.61-1-20.8-13.22-23.83-24-1-3.64-4.34-24.62-4.48-25.51a.48.48,0,0,1,.09-.37.5.5,0,0,1,.33-.2c.07,0,6.44-1,15.11-10.56s8.79-13.69,8.79-13.73a.51.51,0,0,1,.47-.49.5.5,0,0,1,.53.42c1.21,7.63,9.16,16.65,12.36,20L237,95.34a.5.5,0,0,1,.32-.6A.49.49,0,0,1,238,95s1.39,3.1,7,7.62,9.12,5.25,9.15,5.26a.48.48,0,0,1,.4.43c.09.69,2,16.82,1.79,19.52-1,12.09-14,24.63-16.52,26.27A12.41,12.41,0,0,1,232.51,156.49ZM202.13,107c.51,3.2,3.46,21.63,4.38,24.91,3,10.65,18.18,22.46,23,23.31s7.16-.33,9.69-1.94,15.11-13.78,16.07-25.51c.19-2.39-1.46-16.58-1.75-19-1.06-.29-4.38-1.45-9.23-5.37A36.46,36.46,0,0,1,238.78,98l1.44,5.32a.51.51,0,0,1-.23.56.5.5,0,0,1-.6-.07c-.48-.45-10.85-10.53-13.53-19.89-.84,2.2-3,6.19-8.52,12.28C209.69,104.63,203.84,106.58,202.13,107Z" style="fill:#263238"></path><path d="M218.94,122.08a11.62,11.62,0,0,1-4.89-1.21.49.49,0,0,1-.2-.67.49.49,0,0,1,.67-.21c.23.12,5.5,2.89,8.77-.78a.48.48,0,0,1,.7,0,.49.49,0,0,1,0,.7A6.58,6.58,0,0,1,218.94,122.08Z" style="fill:#263238"></path><path d="M211.16,114.74a1,1,0,0,1-.75-1.67c3.9-4.38,12.38-3.06,12.74-3a1,1,0,0,1,.83,1.15,1,1,0,0,1-1.15.83c-.07,0-7.76-1.2-10.92,2.35A1,1,0,0,1,211.16,114.74Z" style="fill:#263238"></path><path d="M243.87,120a7.44,7.44,0,0,1-4.47-1.68.49.49,0,0,1,0-.7.51.51,0,0,1,.71-.05,5.52,5.52,0,0,0,7.79-.42.5.5,0,0,1,.71,0,.51.51,0,0,1,0,.71A6.54,6.54,0,0,1,243.87,120Z" style="fill:#263238"></path><path d="M248.88,111.84a1,1,0,0,1-.62-.22c-4.78-3.79-10.92-.81-11-.78a1,1,0,0,1-1.34-.45,1,1,0,0,1,.44-1.34c.3-.15,7.34-3.58,13.13,1a1,1,0,0,1-.63,1.79Z" style="fill:#263238"></path><path d="M232.32,135.46a9.85,9.85,0,0,1-4.94-1.9c-1.06-.8-.91-3.12-.87-3.57a.52.52,0,0,1,.55-.46.51.51,0,0,1,.45.55c-.08.88,0,2.34.47,2.68.89.66,3.79,2.26,5.28,1.51a11.8,11.8,0,0,0,3.28-3.25l-.21-1.83a.5.5,0,0,1,1-.11l.22,2a.47.47,0,0,1-.08.33,13,13,0,0,1-3.76,3.75A3.07,3.07,0,0,1,232.32,135.46Z" style="fill:#263238"></path><path d="M231.18,141.24a16.76,16.76,0,0,1-7.55-2.07.51.51,0,0,1-.18-.69.52.52,0,0,1,.69-.18c.05,0,5.22,3,9.86,1.52a14.13,14.13,0,0,0,6.67-4.06.5.5,0,0,1,.8.6c-.08.11-2.16,2.82-7.17,4.42A10.3,10.3,0,0,1,231.18,141.24Z" style="fill:#263238"></path><polygon points="186.17 282.25 198.25 275.92 188.98 267.68 186.17 282.25" style="fill:#263238"></polygon><path d="M186.17,282.75a.49.49,0,0,1-.3-.1.5.5,0,0,1-.19-.5l2.81-14.57a.5.5,0,0,1,.82-.28l9.27,8.24a.5.5,0,0,1-.1.82l-12.08,6.33A.46.46,0,0,1,186.17,282.75Zm3.13-14.12-2.44,12.69,10.52-5.51Z" style="fill:#263238"></path><path d="M196.92,254.79s32.7,21.49,35.57,23.88S239,301.16,239,301.16a3.28,3.28,0,0,1-2.62.48c-1.2-.48-9.4-13.42-9.64-14.14s-3.77,6.83-4,8.26.67,11.8,1.38,13.23,5,12.89,5.49,14.09-.23,2.38-1,2.38-5.25-2.38-5.25-2.38l-9.55-4.78a81.22,81.22,0,0,1-5-7.4,54.51,54.51,0,0,1-2.62-5s0,13.37-1,15-3.34-.72-3.34-2.15-.48-12.18-.48-14.09-6.92-30.32-6.92-30.32l-3.82-1.67Z" style="fill:#fff"></path><path d="M228.67,326c-.76,0-4.09-1.71-5.49-2.44l-9.54-4.77a.59.59,0,0,1-.17-.15,81.7,81.7,0,0,1-5.05-7.45c-.74-1.29-1.3-2.33-1.71-3.12,0,3.94-.22,11.78-1,13.15a1.51,1.51,0,0,1-1.78.76,3.88,3.88,0,0,1-2.5-3.16c0-.66-.1-3.34-.21-6.18-.13-3.38-.27-6.87-.27-7.91,0-1.5-4.89-21.9-6.85-30l-3.59-1.57a.51.51,0,0,1-.28-.62l6.21-17.91a.5.5,0,0,1,.31-.31.49.49,0,0,1,.44.06c1.34.87,32.77,21.53,35.62,23.9s6.33,20.72,6.71,22.8a.5.5,0,0,1-.22.5,3.75,3.75,0,0,1-3.09.53c-1.44-.58-8-11.15-9.56-13.84a43.06,43.06,0,0,0-3.41,7.58c-.24,1.45.71,11.66,1.34,12.92.54,1.07,3,7.49,4.44,11.34.54,1.4.94,2.46,1.07,2.78a2.56,2.56,0,0,1-.22,2.35A1.48,1.48,0,0,1,228.67,326Zm-14.48-8,9.45,4.72a34.37,34.37,0,0,0,5,2.33.57.57,0,0,0,.37-.28,1.57,1.57,0,0,0,.11-1.42c-.13-.32-.53-1.38-1.07-2.8-1.46-3.82-3.89-10.22-4.4-11.25-.78-1.54-1.68-12.06-1.43-13.53.08-.51,3.27-8.64,4.4-8.72a.6.6,0,0,1,.57.38c.47,1.17,8.28,13.23,9.37,13.85a2.52,2.52,0,0,0,1.87-.28c-1.07-5.79-4.11-20-6.3-21.86-2.61-2.17-30.73-20.69-35-23.49l-5.85,16.87,3.4,1.48a.48.48,0,0,1,.28.34c.71,2.92,6.94,28.53,6.94,30.44,0,1,.14,4.66.27,7.87.11,2.85.21,5.54.21,6.22a2.94,2.94,0,0,0,1.76,2.19.51.51,0,0,0,.65-.29c.65-1.13.89-9.68.89-14.79a.5.5,0,0,1,1-.2,53.13,53.13,0,0,0,2.6,5A82.11,82.11,0,0,0,214.19,317.91Z" style="fill:#263238"></path><path d="M228.67,326a.47.47,0,0,1-.39-.19c-.29-.36-7-8.95-8.15-11.21s-7.23-18.59-7.48-19.28a.5.5,0,1,1,.93-.35c.07.17,6.35,17,7.45,19.18s8,11,8,11.05a.49.49,0,0,1-.39.8Z" style="fill:#263238"></path><path d="M223.42,323.58a.47.47,0,0,1-.32-.12c-.3-.25-7.36-6.16-9.22-8s-6.84-15.95-7.4-17.55a.5.5,0,0,1,.31-.63.48.48,0,0,1,.63.3c1.5,4.28,5.7,15.71,7.17,17.18,1.83,1.83,9.08,7.9,9.15,8a.51.51,0,0,1,.06.71A.49.49,0,0,1,223.42,323.58Z" style="fill:#263238"></path><path d="M142.24,219.93,200,255.51l-13.85,26.74-80.7-46.32a4.79,4.79,0,0,1,0-3.82c1-1.67,20.3-25.78,20.3-25.78" style="fill:#92E3A9"></path><path d="M186.17,282.75a.47.47,0,0,1-.25-.07l-80.7-46.32a.45.45,0,0,1-.2-.23,5.18,5.18,0,0,1,0-4.27c1-1.68,19.55-24.86,20.34-25.85a.5.5,0,0,1,.78.63c-6.68,8.33-19.51,24.42-20.25,25.72a4.11,4.11,0,0,0,0,3.22l80.1,46,13.39-25.87L142,220.36a.5.5,0,0,1,.52-.85l57.78,35.57a.51.51,0,0,1,.18.66l-13.84,26.74a.55.55,0,0,1-.31.25Z" style="fill:#263238"></path><rect x="353.63" y="158.98" width="38.98" height="28.71" style="fill:#fff"></rect><path d="M392.61,188.19h-39a.5.5,0,0,1-.5-.5V159a.5.5,0,0,1,.5-.5h39a.51.51,0,0,1,.5.5v28.71A.5.5,0,0,1,392.61,188.19Zm-38.48-1h38V159.48h-38Z" style="fill:#263238"></path><rect x="352.41" y="158.98" width="38.98" height="28.71" style="fill:#fff"></rect><path d="M391.39,188.19h-39a.5.5,0,0,1-.5-.5V159a.5.5,0,0,1,.5-.5h39a.5.5,0,0,1,.5.5v28.71A.5.5,0,0,1,391.39,188.19Zm-38.48-1h38V159.48h-38Z" style="fill:#263238"></path><rect x="355.33" y="161.13" width="33.14" height="24.41" style="fill:#fff"></rect><path d="M388.47,186H355.33a.5.5,0,0,1-.5-.5V161.13a.5.5,0,0,1,.5-.5h33.14a.5.5,0,0,1,.5.5v24.41A.5.5,0,0,1,388.47,186Zm-32.64-1H388V161.63H355.83Z" style="fill:#263238"></path><rect x="369.59" y="187.72" width="7.79" height="10.75" style="fill:#fff"></rect><path d="M377.39,199h-7.8a.51.51,0,0,1-.5-.5V187.72a.5.5,0,0,1,.5-.5h7.8a.5.5,0,0,1,.5.5v10.75A.5.5,0,0,1,377.39,199Zm-7.3-1h6.8v-9.75h-6.8Z" style="fill:#263238"></path><rect x="368" y="187.72" width="7.79" height="10.75" style="fill:#fff"></rect><path d="M375.8,199H368a.51.51,0,0,1-.5-.5V187.72a.5.5,0,0,1,.5-.5h7.8a.5.5,0,0,1,.5.5v10.75A.5.5,0,0,1,375.8,199Zm-7.3-1h6.8v-9.75h-6.8Z" style="fill:#263238"></path><rect x="362.57" y="198.23" width="18.66" height="1.89" style="fill:#fff"></rect><path d="M381.23,200.62H362.57a.5.5,0,0,1-.5-.5v-1.89a.51.51,0,0,1,.5-.5h18.66a.5.5,0,0,1,.5.5v1.89A.5.5,0,0,1,381.23,200.62Zm-18.16-1h17.66v-.89H363.07Z" style="fill:#263238"></path></g></svg>
